G04 #@! TF.GenerationSoftware,KiCad,Pcbnew,5.1.5-1.fc31*
G04 #@! TF.CreationDate,2020-02-03T08:48:29+01:00*
G04 #@! TF.ProjectId,lab1,6c616231-2e6b-4696-9361-645f70636258,rev?*
G04 #@! TF.SameCoordinates,Original*
G04 #@! TF.FileFunction,Soldermask,Top*
G04 #@! TF.FilePolarity,Negative*
%FSLAX46Y46*%
G04 Gerber Fmt 4.6, Leading zero omitted, Abs format (unit mm)*
G04 Created by KiCad (PCBNEW 5.1.5-1.fc31) date 2020-02-03 08:48:29*
%MOMM*%
%LPD*%
G04 APERTURE LIST*
%ADD10C,0.100000*%
G04 APERTURE END LIST*
D10*
G36*
X135831000Y-93131000D02*
G01*
X134029000Y-93131000D01*
X134029000Y-91029000D01*
X135831000Y-91029000D01*
X135831000Y-93131000D01*
G37*
G36*
X130381000Y-93131000D02*
G01*
X128579000Y-93131000D01*
X128579000Y-91029000D01*
X130381000Y-91029000D01*
X130381000Y-93131000D01*
G37*
G36*
X101301000Y-92401000D02*
G01*
X99499000Y-92401000D01*
X99499000Y-90599000D01*
X101301000Y-90599000D01*
X101301000Y-92401000D01*
G37*
G36*
X115388674Y-90653465D02*
G01*
X115426367Y-90664899D01*
X115461103Y-90683466D01*
X115491548Y-90708452D01*
X115516534Y-90738897D01*
X115535101Y-90773633D01*
X115546535Y-90811326D01*
X115551000Y-90856661D01*
X115551000Y-91943339D01*
X115546535Y-91988674D01*
X115535101Y-92026367D01*
X115516534Y-92061103D01*
X115491548Y-92091548D01*
X115461103Y-92116534D01*
X115426367Y-92135101D01*
X115388674Y-92146535D01*
X115343339Y-92151000D01*
X114506661Y-92151000D01*
X114461326Y-92146535D01*
X114423633Y-92135101D01*
X114388897Y-92116534D01*
X114358452Y-92091548D01*
X114333466Y-92061103D01*
X114314899Y-92026367D01*
X114303465Y-91988674D01*
X114299000Y-91943339D01*
X114299000Y-90856661D01*
X114303465Y-90811326D01*
X114314899Y-90773633D01*
X114333466Y-90738897D01*
X114358452Y-90708452D01*
X114388897Y-90683466D01*
X114423633Y-90664899D01*
X114461326Y-90653465D01*
X114506661Y-90649000D01*
X115343339Y-90649000D01*
X115388674Y-90653465D01*
G37*
G36*
X118838674Y-90653465D02*
G01*
X118876367Y-90664899D01*
X118911103Y-90683466D01*
X118941548Y-90708452D01*
X118966534Y-90738897D01*
X118985101Y-90773633D01*
X118996535Y-90811326D01*
X119001000Y-90856661D01*
X119001000Y-91943339D01*
X118996535Y-91988674D01*
X118985101Y-92026367D01*
X118966534Y-92061103D01*
X118941548Y-92091548D01*
X118911103Y-92116534D01*
X118876367Y-92135101D01*
X118838674Y-92146535D01*
X118793339Y-92151000D01*
X117956661Y-92151000D01*
X117911326Y-92146535D01*
X117873633Y-92135101D01*
X117838897Y-92116534D01*
X117808452Y-92091548D01*
X117783466Y-92061103D01*
X117764899Y-92026367D01*
X117753465Y-91988674D01*
X117749000Y-91943339D01*
X117749000Y-90856661D01*
X117753465Y-90811326D01*
X117764899Y-90773633D01*
X117783466Y-90738897D01*
X117808452Y-90708452D01*
X117838897Y-90683466D01*
X117873633Y-90664899D01*
X117911326Y-90653465D01*
X117956661Y-90649000D01*
X118793339Y-90649000D01*
X118838674Y-90653465D01*
G37*
G36*
X113338674Y-90653465D02*
G01*
X113376367Y-90664899D01*
X113411103Y-90683466D01*
X113441548Y-90708452D01*
X113466534Y-90738897D01*
X113485101Y-90773633D01*
X113496535Y-90811326D01*
X113501000Y-90856661D01*
X113501000Y-91943339D01*
X113496535Y-91988674D01*
X113485101Y-92026367D01*
X113466534Y-92061103D01*
X113441548Y-92091548D01*
X113411103Y-92116534D01*
X113376367Y-92135101D01*
X113338674Y-92146535D01*
X113293339Y-92151000D01*
X112456661Y-92151000D01*
X112411326Y-92146535D01*
X112373633Y-92135101D01*
X112338897Y-92116534D01*
X112308452Y-92091548D01*
X112283466Y-92061103D01*
X112264899Y-92026367D01*
X112253465Y-91988674D01*
X112249000Y-91943339D01*
X112249000Y-90856661D01*
X112253465Y-90811326D01*
X112264899Y-90773633D01*
X112283466Y-90738897D01*
X112308452Y-90708452D01*
X112338897Y-90683466D01*
X112373633Y-90664899D01*
X112411326Y-90653465D01*
X112456661Y-90649000D01*
X113293339Y-90649000D01*
X113338674Y-90653465D01*
G37*
G36*
X120888674Y-90653465D02*
G01*
X120926367Y-90664899D01*
X120961103Y-90683466D01*
X120991548Y-90708452D01*
X121016534Y-90738897D01*
X121035101Y-90773633D01*
X121046535Y-90811326D01*
X121051000Y-90856661D01*
X121051000Y-91943339D01*
X121046535Y-91988674D01*
X121035101Y-92026367D01*
X121016534Y-92061103D01*
X120991548Y-92091548D01*
X120961103Y-92116534D01*
X120926367Y-92135101D01*
X120888674Y-92146535D01*
X120843339Y-92151000D01*
X120006661Y-92151000D01*
X119961326Y-92146535D01*
X119923633Y-92135101D01*
X119888897Y-92116534D01*
X119858452Y-92091548D01*
X119833466Y-92061103D01*
X119814899Y-92026367D01*
X119803465Y-91988674D01*
X119799000Y-91943339D01*
X119799000Y-90856661D01*
X119803465Y-90811326D01*
X119814899Y-90773633D01*
X119833466Y-90738897D01*
X119858452Y-90708452D01*
X119888897Y-90683466D01*
X119923633Y-90664899D01*
X119961326Y-90653465D01*
X120006661Y-90649000D01*
X120843339Y-90649000D01*
X120888674Y-90653465D01*
G37*
G36*
X132240721Y-89300174D02*
G01*
X132340995Y-89341709D01*
X132340996Y-89341710D01*
X132431242Y-89402010D01*
X132507990Y-89478758D01*
X132507991Y-89478760D01*
X132568291Y-89569005D01*
X132609826Y-89669279D01*
X132631000Y-89775730D01*
X132631000Y-89884270D01*
X132609826Y-89990721D01*
X132568291Y-90090995D01*
X132568290Y-90090996D01*
X132507990Y-90181242D01*
X132431242Y-90257990D01*
X132385812Y-90288345D01*
X132340995Y-90318291D01*
X132240721Y-90359826D01*
X132134270Y-90381000D01*
X132025730Y-90381000D01*
X131919279Y-90359826D01*
X131819005Y-90318291D01*
X131774188Y-90288345D01*
X131728758Y-90257990D01*
X131652010Y-90181242D01*
X131591710Y-90090996D01*
X131591709Y-90090995D01*
X131550174Y-89990721D01*
X131529000Y-89884270D01*
X131529000Y-89775730D01*
X131550174Y-89669279D01*
X131591709Y-89569005D01*
X131652009Y-89478760D01*
X131652010Y-89478758D01*
X131728758Y-89402010D01*
X131819004Y-89341710D01*
X131819005Y-89341709D01*
X131919279Y-89300174D01*
X132025730Y-89279000D01*
X132134270Y-89279000D01*
X132240721Y-89300174D01*
G37*
G36*
X100513512Y-88063927D02*
G01*
X100662812Y-88093624D01*
X100826784Y-88161544D01*
X100974354Y-88260147D01*
X101099853Y-88385646D01*
X101198456Y-88533216D01*
X101266376Y-88697188D01*
X101301000Y-88871259D01*
X101301000Y-89048741D01*
X101266376Y-89222812D01*
X101198456Y-89386784D01*
X101099853Y-89534354D01*
X100974354Y-89659853D01*
X100826784Y-89758456D01*
X100662812Y-89826376D01*
X100513512Y-89856073D01*
X100488742Y-89861000D01*
X100311258Y-89861000D01*
X100286488Y-89856073D01*
X100137188Y-89826376D01*
X99973216Y-89758456D01*
X99825646Y-89659853D01*
X99700147Y-89534354D01*
X99601544Y-89386784D01*
X99533624Y-89222812D01*
X99499000Y-89048741D01*
X99499000Y-88871259D01*
X99533624Y-88697188D01*
X99601544Y-88533216D01*
X99700147Y-88385646D01*
X99825646Y-88260147D01*
X99973216Y-88161544D01*
X100137188Y-88093624D01*
X100286488Y-88063927D01*
X100311258Y-88059000D01*
X100488742Y-88059000D01*
X100513512Y-88063927D01*
G37*
G36*
X130431000Y-89531000D02*
G01*
X128329000Y-89531000D01*
X128329000Y-85729000D01*
X130431000Y-85729000D01*
X130431000Y-89531000D01*
G37*
G36*
X119601000Y-87701000D02*
G01*
X117999000Y-87701000D01*
X117999000Y-85599000D01*
X119601000Y-85599000D01*
X119601000Y-87701000D01*
G37*
G36*
X117301000Y-87701000D02*
G01*
X115699000Y-87701000D01*
X115699000Y-85599000D01*
X117301000Y-85599000D01*
X117301000Y-87701000D01*
G37*
G36*
X121901000Y-87701000D02*
G01*
X120299000Y-87701000D01*
X120299000Y-85599000D01*
X121901000Y-85599000D01*
X121901000Y-87701000D01*
G37*
G36*
X100513512Y-85523927D02*
G01*
X100662812Y-85553624D01*
X100826784Y-85621544D01*
X100974354Y-85720147D01*
X101099853Y-85845646D01*
X101198456Y-85993216D01*
X101266376Y-86157188D01*
X101296073Y-86306488D01*
X101300949Y-86331000D01*
X101301000Y-86331259D01*
X101301000Y-86508741D01*
X101266376Y-86682812D01*
X101198456Y-86846784D01*
X101099853Y-86994354D01*
X100974354Y-87119853D01*
X100826784Y-87218456D01*
X100662812Y-87286376D01*
X100513512Y-87316073D01*
X100488742Y-87321000D01*
X100311258Y-87321000D01*
X100286488Y-87316073D01*
X100137188Y-87286376D01*
X99973216Y-87218456D01*
X99825646Y-87119853D01*
X99700147Y-86994354D01*
X99601544Y-86846784D01*
X99533624Y-86682812D01*
X99499000Y-86508741D01*
X99499000Y-86331259D01*
X99499052Y-86331000D01*
X99503927Y-86306488D01*
X99533624Y-86157188D01*
X99601544Y-85993216D01*
X99700147Y-85845646D01*
X99825646Y-85720147D01*
X99973216Y-85621544D01*
X100137188Y-85553624D01*
X100286488Y-85523927D01*
X100311258Y-85519000D01*
X100488742Y-85519000D01*
X100513512Y-85523927D01*
G37*
G36*
X132240721Y-84900174D02*
G01*
X132340995Y-84941709D01*
X132340996Y-84941710D01*
X132431242Y-85002010D01*
X132507990Y-85078758D01*
X132507991Y-85078760D01*
X132568291Y-85169005D01*
X132609826Y-85269279D01*
X132631000Y-85375730D01*
X132631000Y-85484270D01*
X132609826Y-85590721D01*
X132568291Y-85690995D01*
X132542897Y-85729000D01*
X132507990Y-85781242D01*
X132431242Y-85857990D01*
X132397306Y-85880665D01*
X132340995Y-85918291D01*
X132240721Y-85959826D01*
X132134270Y-85981000D01*
X132025730Y-85981000D01*
X131919279Y-85959826D01*
X131819005Y-85918291D01*
X131762694Y-85880665D01*
X131728758Y-85857990D01*
X131652010Y-85781242D01*
X131617103Y-85729000D01*
X131591709Y-85690995D01*
X131550174Y-85590721D01*
X131529000Y-85484270D01*
X131529000Y-85375730D01*
X131550174Y-85269279D01*
X131591709Y-85169005D01*
X131652009Y-85078760D01*
X131652010Y-85078758D01*
X131728758Y-85002010D01*
X131819004Y-84941710D01*
X131819005Y-84941709D01*
X131919279Y-84900174D01*
X132025730Y-84879000D01*
X132134270Y-84879000D01*
X132240721Y-84900174D01*
G37*
G36*
X107715997Y-84263051D02*
G01*
X107749652Y-84273261D01*
X107780665Y-84289838D01*
X107807851Y-84312149D01*
X107830162Y-84339335D01*
X107846739Y-84370348D01*
X107856949Y-84404003D01*
X107861000Y-84445138D01*
X107861000Y-85774862D01*
X107856949Y-85815997D01*
X107846739Y-85849652D01*
X107830162Y-85880665D01*
X107807851Y-85907851D01*
X107780665Y-85930162D01*
X107749652Y-85946739D01*
X107715997Y-85956949D01*
X107674862Y-85961000D01*
X105345138Y-85961000D01*
X105304003Y-85956949D01*
X105270348Y-85946739D01*
X105239335Y-85930162D01*
X105212149Y-85907851D01*
X105189838Y-85880665D01*
X105173261Y-85849652D01*
X105163051Y-85815997D01*
X105159000Y-85774862D01*
X105159000Y-84445138D01*
X105163051Y-84404003D01*
X105173261Y-84370348D01*
X105189838Y-84339335D01*
X105212149Y-84312149D01*
X105239335Y-84289838D01*
X105270348Y-84273261D01*
X105304003Y-84263051D01*
X105345138Y-84259000D01*
X107674862Y-84259000D01*
X107715997Y-84263051D01*
G37*
G36*
X111315997Y-84263051D02*
G01*
X111349652Y-84273261D01*
X111380665Y-84289838D01*
X111407851Y-84312149D01*
X111430162Y-84339335D01*
X111446739Y-84370348D01*
X111456949Y-84404003D01*
X111461000Y-84445138D01*
X111461000Y-85774862D01*
X111456949Y-85815997D01*
X111446739Y-85849652D01*
X111430162Y-85880665D01*
X111407851Y-85907851D01*
X111380665Y-85930162D01*
X111349652Y-85946739D01*
X111315997Y-85956949D01*
X111274862Y-85961000D01*
X108945138Y-85961000D01*
X108904003Y-85956949D01*
X108870348Y-85946739D01*
X108839335Y-85930162D01*
X108812149Y-85907851D01*
X108789838Y-85880665D01*
X108773261Y-85849652D01*
X108763051Y-85815997D01*
X108759000Y-85774862D01*
X108759000Y-84445138D01*
X108763051Y-84404003D01*
X108773261Y-84370348D01*
X108789838Y-84339335D01*
X108812149Y-84312149D01*
X108839335Y-84289838D01*
X108870348Y-84273261D01*
X108904003Y-84263051D01*
X108945138Y-84259000D01*
X111274862Y-84259000D01*
X111315997Y-84263051D01*
G37*
G36*
X100513512Y-82983927D02*
G01*
X100662812Y-83013624D01*
X100826784Y-83081544D01*
X100974354Y-83180147D01*
X101099853Y-83305646D01*
X101198456Y-83453216D01*
X101266376Y-83617188D01*
X101301000Y-83791259D01*
X101301000Y-83968741D01*
X101266376Y-84142812D01*
X101198456Y-84306784D01*
X101099853Y-84454354D01*
X100974354Y-84579853D01*
X100826784Y-84678456D01*
X100662812Y-84746376D01*
X100513512Y-84776073D01*
X100488742Y-84781000D01*
X100311258Y-84781000D01*
X100286488Y-84776073D01*
X100137188Y-84746376D01*
X99973216Y-84678456D01*
X99825646Y-84579853D01*
X99700147Y-84454354D01*
X99601544Y-84306784D01*
X99533624Y-84142812D01*
X99499000Y-83968741D01*
X99499000Y-83791259D01*
X99533624Y-83617188D01*
X99601544Y-83453216D01*
X99700147Y-83305646D01*
X99825646Y-83180147D01*
X99973216Y-83081544D01*
X100137188Y-83013624D01*
X100286488Y-82983927D01*
X100311258Y-82979000D01*
X100488742Y-82979000D01*
X100513512Y-82983927D01*
G37*
G36*
X130381000Y-84231000D02*
G01*
X128579000Y-84231000D01*
X128579000Y-82129000D01*
X130381000Y-82129000D01*
X130381000Y-84231000D01*
G37*
G36*
X135831000Y-84231000D02*
G01*
X134029000Y-84231000D01*
X134029000Y-82129000D01*
X135831000Y-82129000D01*
X135831000Y-84231000D01*
G37*
G36*
X100513512Y-80443927D02*
G01*
X100662812Y-80473624D01*
X100826784Y-80541544D01*
X100974354Y-80640147D01*
X101099853Y-80765646D01*
X101198456Y-80913216D01*
X101266376Y-81077188D01*
X101301000Y-81251259D01*
X101301000Y-81428741D01*
X101266376Y-81602812D01*
X101198456Y-81766784D01*
X101099853Y-81914354D01*
X100974354Y-82039853D01*
X100826784Y-82138456D01*
X100662812Y-82206376D01*
X100513512Y-82236073D01*
X100488742Y-82241000D01*
X100311258Y-82241000D01*
X100286488Y-82236073D01*
X100137188Y-82206376D01*
X99973216Y-82138456D01*
X99825646Y-82039853D01*
X99700147Y-81914354D01*
X99601544Y-81766784D01*
X99533624Y-81602812D01*
X99499000Y-81428741D01*
X99499000Y-81251259D01*
X99533624Y-81077188D01*
X99601544Y-80913216D01*
X99700147Y-80765646D01*
X99825646Y-80640147D01*
X99973216Y-80541544D01*
X100137188Y-80473624D01*
X100286488Y-80443927D01*
X100311258Y-80439000D01*
X100488742Y-80439000D01*
X100513512Y-80443927D01*
G37*
G36*
X120751000Y-81401000D02*
G01*
X116849000Y-81401000D01*
X116849000Y-79299000D01*
X120751000Y-79299000D01*
X120751000Y-81401000D01*
G37*
G36*
X109798674Y-79283465D02*
G01*
X109836367Y-79294899D01*
X109871103Y-79313466D01*
X109901548Y-79338452D01*
X109926534Y-79368897D01*
X109945101Y-79403633D01*
X109956535Y-79441326D01*
X109961000Y-79486661D01*
X109961000Y-80573339D01*
X109956535Y-80618674D01*
X109945101Y-80656367D01*
X109926534Y-80691103D01*
X109901548Y-80721548D01*
X109871103Y-80746534D01*
X109836367Y-80765101D01*
X109798674Y-80776535D01*
X109753339Y-80781000D01*
X108916661Y-80781000D01*
X108871326Y-80776535D01*
X108833633Y-80765101D01*
X108798897Y-80746534D01*
X108768452Y-80721548D01*
X108743466Y-80691103D01*
X108724899Y-80656367D01*
X108713465Y-80618674D01*
X108709000Y-80573339D01*
X108709000Y-79486661D01*
X108713465Y-79441326D01*
X108724899Y-79403633D01*
X108743466Y-79368897D01*
X108768452Y-79338452D01*
X108798897Y-79313466D01*
X108833633Y-79294899D01*
X108871326Y-79283465D01*
X108916661Y-79279000D01*
X109753339Y-79279000D01*
X109798674Y-79283465D01*
G37*
G36*
X107748674Y-79283465D02*
G01*
X107786367Y-79294899D01*
X107821103Y-79313466D01*
X107851548Y-79338452D01*
X107876534Y-79368897D01*
X107895101Y-79403633D01*
X107906535Y-79441326D01*
X107911000Y-79486661D01*
X107911000Y-80573339D01*
X107906535Y-80618674D01*
X107895101Y-80656367D01*
X107876534Y-80691103D01*
X107851548Y-80721548D01*
X107821103Y-80746534D01*
X107786367Y-80765101D01*
X107748674Y-80776535D01*
X107703339Y-80781000D01*
X106866661Y-80781000D01*
X106821326Y-80776535D01*
X106783633Y-80765101D01*
X106748897Y-80746534D01*
X106718452Y-80721548D01*
X106693466Y-80691103D01*
X106674899Y-80656367D01*
X106663465Y-80618674D01*
X106659000Y-80573339D01*
X106659000Y-79486661D01*
X106663465Y-79441326D01*
X106674899Y-79403633D01*
X106693466Y-79368897D01*
X106718452Y-79338452D01*
X106748897Y-79313466D01*
X106783633Y-79294899D01*
X106821326Y-79283465D01*
X106866661Y-79279000D01*
X107703339Y-79279000D01*
X107748674Y-79283465D01*
G37*
G36*
X100513512Y-77903927D02*
G01*
X100662812Y-77933624D01*
X100826784Y-78001544D01*
X100974354Y-78100147D01*
X101099853Y-78225646D01*
X101198456Y-78373216D01*
X101266376Y-78537188D01*
X101301000Y-78711259D01*
X101301000Y-78888741D01*
X101266376Y-79062812D01*
X101198456Y-79226784D01*
X101099853Y-79374354D01*
X100974354Y-79499853D01*
X100826784Y-79598456D01*
X100662812Y-79666376D01*
X100513512Y-79696073D01*
X100488742Y-79701000D01*
X100311258Y-79701000D01*
X100286488Y-79696073D01*
X100137188Y-79666376D01*
X99973216Y-79598456D01*
X99825646Y-79499853D01*
X99700147Y-79374354D01*
X99601544Y-79226784D01*
X99533624Y-79062812D01*
X99499000Y-78888741D01*
X99499000Y-78711259D01*
X99533624Y-78537188D01*
X99601544Y-78373216D01*
X99700147Y-78225646D01*
X99825646Y-78100147D01*
X99973216Y-78001544D01*
X100137188Y-77933624D01*
X100286488Y-77903927D01*
X100311258Y-77899000D01*
X100488742Y-77899000D01*
X100513512Y-77903927D01*
G37*
G36*
X137088674Y-78003465D02*
G01*
X137126367Y-78014899D01*
X137161103Y-78033466D01*
X137191548Y-78058452D01*
X137216534Y-78088897D01*
X137235101Y-78123633D01*
X137246535Y-78161326D01*
X137251000Y-78206661D01*
X137251000Y-79043339D01*
X137246535Y-79088674D01*
X137235101Y-79126367D01*
X137216534Y-79161103D01*
X137191548Y-79191548D01*
X137161103Y-79216534D01*
X137126367Y-79235101D01*
X137088674Y-79246535D01*
X137043339Y-79251000D01*
X135956661Y-79251000D01*
X135911326Y-79246535D01*
X135873633Y-79235101D01*
X135838897Y-79216534D01*
X135808452Y-79191548D01*
X135783466Y-79161103D01*
X135764899Y-79126367D01*
X135753465Y-79088674D01*
X135749000Y-79043339D01*
X135749000Y-78206661D01*
X135753465Y-78161326D01*
X135764899Y-78123633D01*
X135783466Y-78088897D01*
X135808452Y-78058452D01*
X135838897Y-78033466D01*
X135873633Y-78014899D01*
X135911326Y-78003465D01*
X135956661Y-77999000D01*
X137043339Y-77999000D01*
X137088674Y-78003465D01*
G37*
G36*
X132005997Y-76523051D02*
G01*
X132039652Y-76533261D01*
X132070665Y-76549838D01*
X132097851Y-76572149D01*
X132120162Y-76599335D01*
X132136739Y-76630348D01*
X132146949Y-76664003D01*
X132151000Y-76705138D01*
X132151000Y-79034862D01*
X132146949Y-79075997D01*
X132136739Y-79109652D01*
X132120162Y-79140665D01*
X132097851Y-79167851D01*
X132070665Y-79190162D01*
X132039652Y-79206739D01*
X132005997Y-79216949D01*
X131964862Y-79221000D01*
X130635138Y-79221000D01*
X130594003Y-79216949D01*
X130560348Y-79206739D01*
X130529335Y-79190162D01*
X130502149Y-79167851D01*
X130479838Y-79140665D01*
X130463261Y-79109652D01*
X130453051Y-79075997D01*
X130449000Y-79034862D01*
X130449000Y-76705138D01*
X130453051Y-76664003D01*
X130463261Y-76630348D01*
X130479838Y-76599335D01*
X130502149Y-76572149D01*
X130529335Y-76549838D01*
X130560348Y-76533261D01*
X130594003Y-76523051D01*
X130635138Y-76519000D01*
X131964862Y-76519000D01*
X132005997Y-76523051D01*
G37*
G36*
X126201000Y-77401000D02*
G01*
X124499000Y-77401000D01*
X124499000Y-75999000D01*
X126201000Y-75999000D01*
X126201000Y-77401000D01*
G37*
G36*
X122901000Y-77401000D02*
G01*
X121199000Y-77401000D01*
X121199000Y-75999000D01*
X122901000Y-75999000D01*
X122901000Y-77401000D01*
G37*
G36*
X137088674Y-75953465D02*
G01*
X137126367Y-75964899D01*
X137161103Y-75983466D01*
X137191548Y-76008452D01*
X137216534Y-76038897D01*
X137235101Y-76073633D01*
X137246535Y-76111326D01*
X137251000Y-76156661D01*
X137251000Y-76993339D01*
X137246535Y-77038674D01*
X137235101Y-77076367D01*
X137216534Y-77111103D01*
X137191548Y-77141548D01*
X137161103Y-77166534D01*
X137126367Y-77185101D01*
X137088674Y-77196535D01*
X137043339Y-77201000D01*
X135956661Y-77201000D01*
X135911326Y-77196535D01*
X135873633Y-77185101D01*
X135838897Y-77166534D01*
X135808452Y-77141548D01*
X135783466Y-77111103D01*
X135764899Y-77076367D01*
X135753465Y-77038674D01*
X135749000Y-76993339D01*
X135749000Y-76156661D01*
X135753465Y-76111326D01*
X135764899Y-76073633D01*
X135783466Y-76038897D01*
X135808452Y-76008452D01*
X135838897Y-75983466D01*
X135873633Y-75964899D01*
X135911326Y-75953465D01*
X135956661Y-75949000D01*
X137043339Y-75949000D01*
X137088674Y-75953465D01*
G37*
G36*
X115788674Y-74183465D02*
G01*
X115826367Y-74194899D01*
X115861103Y-74213466D01*
X115891548Y-74238452D01*
X115916534Y-74268897D01*
X115935101Y-74303633D01*
X115946535Y-74341326D01*
X115951000Y-74386661D01*
X115951000Y-75473339D01*
X115946535Y-75518674D01*
X115935101Y-75556367D01*
X115916534Y-75591103D01*
X115891548Y-75621548D01*
X115861103Y-75646534D01*
X115826367Y-75665101D01*
X115788674Y-75676535D01*
X115743339Y-75681000D01*
X114906661Y-75681000D01*
X114861326Y-75676535D01*
X114823633Y-75665101D01*
X114788897Y-75646534D01*
X114758452Y-75621548D01*
X114733466Y-75591103D01*
X114714899Y-75556367D01*
X114703465Y-75518674D01*
X114699000Y-75473339D01*
X114699000Y-74386661D01*
X114703465Y-74341326D01*
X114714899Y-74303633D01*
X114733466Y-74268897D01*
X114758452Y-74238452D01*
X114788897Y-74213466D01*
X114823633Y-74194899D01*
X114861326Y-74183465D01*
X114906661Y-74179000D01*
X115743339Y-74179000D01*
X115788674Y-74183465D01*
G37*
G36*
X113738674Y-74183465D02*
G01*
X113776367Y-74194899D01*
X113811103Y-74213466D01*
X113841548Y-74238452D01*
X113866534Y-74268897D01*
X113885101Y-74303633D01*
X113896535Y-74341326D01*
X113901000Y-74386661D01*
X113901000Y-75473339D01*
X113896535Y-75518674D01*
X113885101Y-75556367D01*
X113866534Y-75591103D01*
X113841548Y-75621548D01*
X113811103Y-75646534D01*
X113776367Y-75665101D01*
X113738674Y-75676535D01*
X113693339Y-75681000D01*
X112856661Y-75681000D01*
X112811326Y-75676535D01*
X112773633Y-75665101D01*
X112738897Y-75646534D01*
X112708452Y-75621548D01*
X112683466Y-75591103D01*
X112664899Y-75556367D01*
X112653465Y-75518674D01*
X112649000Y-75473339D01*
X112649000Y-74386661D01*
X112653465Y-74341326D01*
X112664899Y-74303633D01*
X112683466Y-74268897D01*
X112708452Y-74238452D01*
X112738897Y-74213466D01*
X112773633Y-74194899D01*
X112811326Y-74183465D01*
X112856661Y-74179000D01*
X113693339Y-74179000D01*
X113738674Y-74183465D01*
G37*
G36*
X132005997Y-72923051D02*
G01*
X132039652Y-72933261D01*
X132070665Y-72949838D01*
X132097851Y-72972149D01*
X132120162Y-72999335D01*
X132136739Y-73030348D01*
X132146949Y-73064003D01*
X132151000Y-73105138D01*
X132151000Y-75434862D01*
X132146949Y-75475997D01*
X132136739Y-75509652D01*
X132120162Y-75540665D01*
X132097851Y-75567851D01*
X132070665Y-75590162D01*
X132039652Y-75606739D01*
X132005997Y-75616949D01*
X131964862Y-75621000D01*
X130635138Y-75621000D01*
X130594003Y-75616949D01*
X130560348Y-75606739D01*
X130529335Y-75590162D01*
X130502149Y-75567851D01*
X130479838Y-75540665D01*
X130463261Y-75509652D01*
X130453051Y-75475997D01*
X130449000Y-75434862D01*
X130449000Y-73105138D01*
X130453051Y-73064003D01*
X130463261Y-73030348D01*
X130479838Y-72999335D01*
X130502149Y-72972149D01*
X130529335Y-72949838D01*
X130560348Y-72933261D01*
X130594003Y-72923051D01*
X130635138Y-72919000D01*
X131964862Y-72919000D01*
X132005997Y-72923051D01*
G37*
G36*
X101368674Y-73923465D02*
G01*
X101406367Y-73934899D01*
X101441103Y-73953466D01*
X101471548Y-73978452D01*
X101496534Y-74008897D01*
X101515101Y-74043633D01*
X101526535Y-74081326D01*
X101531000Y-74126661D01*
X101531000Y-75213339D01*
X101526535Y-75258674D01*
X101515101Y-75296367D01*
X101496534Y-75331103D01*
X101471548Y-75361548D01*
X101441103Y-75386534D01*
X101406367Y-75405101D01*
X101368674Y-75416535D01*
X101323339Y-75421000D01*
X100486661Y-75421000D01*
X100441326Y-75416535D01*
X100403633Y-75405101D01*
X100368897Y-75386534D01*
X100338452Y-75361548D01*
X100313466Y-75331103D01*
X100294899Y-75296367D01*
X100283465Y-75258674D01*
X100279000Y-75213339D01*
X100279000Y-74126661D01*
X100283465Y-74081326D01*
X100294899Y-74043633D01*
X100313466Y-74008897D01*
X100338452Y-73978452D01*
X100368897Y-73953466D01*
X100403633Y-73934899D01*
X100441326Y-73923465D01*
X100486661Y-73919000D01*
X101323339Y-73919000D01*
X101368674Y-73923465D01*
G37*
G36*
X103418674Y-73923465D02*
G01*
X103456367Y-73934899D01*
X103491103Y-73953466D01*
X103521548Y-73978452D01*
X103546534Y-74008897D01*
X103565101Y-74043633D01*
X103576535Y-74081326D01*
X103581000Y-74126661D01*
X103581000Y-75213339D01*
X103576535Y-75258674D01*
X103565101Y-75296367D01*
X103546534Y-75331103D01*
X103521548Y-75361548D01*
X103491103Y-75386534D01*
X103456367Y-75405101D01*
X103418674Y-75416535D01*
X103373339Y-75421000D01*
X102536661Y-75421000D01*
X102491326Y-75416535D01*
X102453633Y-75405101D01*
X102418897Y-75386534D01*
X102388452Y-75361548D01*
X102363466Y-75331103D01*
X102344899Y-75296367D01*
X102333465Y-75258674D01*
X102329000Y-75213339D01*
X102329000Y-74126661D01*
X102333465Y-74081326D01*
X102344899Y-74043633D01*
X102363466Y-74008897D01*
X102388452Y-73978452D01*
X102418897Y-73953466D01*
X102453633Y-73934899D01*
X102491326Y-73923465D01*
X102536661Y-73919000D01*
X103373339Y-73919000D01*
X103418674Y-73923465D01*
G37*
G36*
X122901000Y-75401000D02*
G01*
X121199000Y-75401000D01*
X121199000Y-73999000D01*
X122901000Y-73999000D01*
X122901000Y-75401000D01*
G37*
G36*
X126201000Y-75401000D02*
G01*
X124499000Y-75401000D01*
X124499000Y-73999000D01*
X126201000Y-73999000D01*
X126201000Y-75401000D01*
G37*
G36*
X101368674Y-71423465D02*
G01*
X101406367Y-71434899D01*
X101441103Y-71453466D01*
X101471548Y-71478452D01*
X101496534Y-71508897D01*
X101515101Y-71543633D01*
X101526535Y-71581326D01*
X101531000Y-71626661D01*
X101531000Y-72713339D01*
X101526535Y-72758674D01*
X101515101Y-72796367D01*
X101496534Y-72831103D01*
X101471548Y-72861548D01*
X101441103Y-72886534D01*
X101406367Y-72905101D01*
X101368674Y-72916535D01*
X101323339Y-72921000D01*
X100486661Y-72921000D01*
X100441326Y-72916535D01*
X100403633Y-72905101D01*
X100368897Y-72886534D01*
X100338452Y-72861548D01*
X100313466Y-72831103D01*
X100294899Y-72796367D01*
X100283465Y-72758674D01*
X100279000Y-72713339D01*
X100279000Y-71626661D01*
X100283465Y-71581326D01*
X100294899Y-71543633D01*
X100313466Y-71508897D01*
X100338452Y-71478452D01*
X100368897Y-71453466D01*
X100403633Y-71434899D01*
X100441326Y-71423465D01*
X100486661Y-71419000D01*
X101323339Y-71419000D01*
X101368674Y-71423465D01*
G37*
G36*
X103418674Y-71423465D02*
G01*
X103456367Y-71434899D01*
X103491103Y-71453466D01*
X103521548Y-71478452D01*
X103546534Y-71508897D01*
X103565101Y-71543633D01*
X103576535Y-71581326D01*
X103581000Y-71626661D01*
X103581000Y-72713339D01*
X103576535Y-72758674D01*
X103565101Y-72796367D01*
X103546534Y-72831103D01*
X103521548Y-72861548D01*
X103491103Y-72886534D01*
X103456367Y-72905101D01*
X103418674Y-72916535D01*
X103373339Y-72921000D01*
X102536661Y-72921000D01*
X102491326Y-72916535D01*
X102453633Y-72905101D01*
X102418897Y-72886534D01*
X102388452Y-72861548D01*
X102363466Y-72831103D01*
X102344899Y-72796367D01*
X102333465Y-72758674D01*
X102329000Y-72713339D01*
X102329000Y-71626661D01*
X102333465Y-71581326D01*
X102344899Y-71543633D01*
X102363466Y-71508897D01*
X102388452Y-71478452D01*
X102418897Y-71453466D01*
X102453633Y-71434899D01*
X102491326Y-71423465D01*
X102536661Y-71419000D01*
X103373339Y-71419000D01*
X103418674Y-71423465D01*
G37*
G36*
X108690295Y-70580323D02*
G01*
X108697309Y-70582451D01*
X108711077Y-70589810D01*
X108733716Y-70599187D01*
X108757749Y-70603967D01*
X108782253Y-70603967D01*
X108806286Y-70599186D01*
X108828923Y-70589810D01*
X108842691Y-70582451D01*
X108849705Y-70580323D01*
X108863140Y-70579000D01*
X109176860Y-70579000D01*
X109190295Y-70580323D01*
X109197309Y-70582451D01*
X109211077Y-70589810D01*
X109233716Y-70599187D01*
X109257749Y-70603967D01*
X109282253Y-70603967D01*
X109306286Y-70599186D01*
X109328923Y-70589810D01*
X109342691Y-70582451D01*
X109349705Y-70580323D01*
X109363140Y-70579000D01*
X109676860Y-70579000D01*
X109690295Y-70580323D01*
X109697309Y-70582451D01*
X109711077Y-70589810D01*
X109733716Y-70599187D01*
X109757749Y-70603967D01*
X109782253Y-70603967D01*
X109806286Y-70599186D01*
X109828923Y-70589810D01*
X109842691Y-70582451D01*
X109849705Y-70580323D01*
X109863140Y-70579000D01*
X110176860Y-70579000D01*
X110190295Y-70580323D01*
X110197309Y-70582451D01*
X110211077Y-70589810D01*
X110233716Y-70599187D01*
X110257749Y-70603967D01*
X110282253Y-70603967D01*
X110306286Y-70599186D01*
X110328923Y-70589810D01*
X110342691Y-70582451D01*
X110349705Y-70580323D01*
X110363140Y-70579000D01*
X110676860Y-70579000D01*
X110690295Y-70580323D01*
X110697309Y-70582451D01*
X110711077Y-70589810D01*
X110733716Y-70599187D01*
X110757749Y-70603967D01*
X110782253Y-70603967D01*
X110806286Y-70599186D01*
X110828923Y-70589810D01*
X110842691Y-70582451D01*
X110849705Y-70580323D01*
X110863140Y-70579000D01*
X111176860Y-70579000D01*
X111190295Y-70580323D01*
X111197309Y-70582451D01*
X111211077Y-70589810D01*
X111233716Y-70599187D01*
X111257749Y-70603967D01*
X111282253Y-70603967D01*
X111306286Y-70599186D01*
X111328923Y-70589810D01*
X111342691Y-70582451D01*
X111349705Y-70580323D01*
X111363140Y-70579000D01*
X111676860Y-70579000D01*
X111690295Y-70580323D01*
X111697309Y-70582451D01*
X111711077Y-70589810D01*
X111733716Y-70599187D01*
X111757749Y-70603967D01*
X111782253Y-70603967D01*
X111806286Y-70599186D01*
X111828923Y-70589810D01*
X111842691Y-70582451D01*
X111849705Y-70580323D01*
X111863140Y-70579000D01*
X112176860Y-70579000D01*
X112190295Y-70580323D01*
X112197309Y-70582451D01*
X112211077Y-70589810D01*
X112233716Y-70599187D01*
X112257749Y-70603967D01*
X112282253Y-70603967D01*
X112306286Y-70599186D01*
X112328923Y-70589810D01*
X112342691Y-70582451D01*
X112349705Y-70580323D01*
X112363140Y-70579000D01*
X112676860Y-70579000D01*
X112690295Y-70580323D01*
X112697309Y-70582451D01*
X112711077Y-70589810D01*
X112733716Y-70599187D01*
X112757749Y-70603967D01*
X112782253Y-70603967D01*
X112806286Y-70599186D01*
X112828923Y-70589810D01*
X112842691Y-70582451D01*
X112849705Y-70580323D01*
X112863140Y-70579000D01*
X113176860Y-70579000D01*
X113190295Y-70580323D01*
X113197309Y-70582451D01*
X113211077Y-70589810D01*
X113233716Y-70599187D01*
X113257749Y-70603967D01*
X113282253Y-70603967D01*
X113306286Y-70599186D01*
X113328923Y-70589810D01*
X113342691Y-70582451D01*
X113349705Y-70580323D01*
X113363140Y-70579000D01*
X113676860Y-70579000D01*
X113690295Y-70580323D01*
X113697309Y-70582451D01*
X113711077Y-70589810D01*
X113733716Y-70599187D01*
X113757749Y-70603967D01*
X113782253Y-70603967D01*
X113806286Y-70599186D01*
X113828923Y-70589810D01*
X113842691Y-70582451D01*
X113849705Y-70580323D01*
X113863140Y-70579000D01*
X114176860Y-70579000D01*
X114190295Y-70580323D01*
X114197309Y-70582451D01*
X114211077Y-70589810D01*
X114233716Y-70599187D01*
X114257749Y-70603967D01*
X114282253Y-70603967D01*
X114306286Y-70599186D01*
X114328923Y-70589810D01*
X114342691Y-70582451D01*
X114349705Y-70580323D01*
X114363140Y-70579000D01*
X114676860Y-70579000D01*
X114690295Y-70580323D01*
X114697309Y-70582451D01*
X114711077Y-70589810D01*
X114733716Y-70599187D01*
X114757749Y-70603967D01*
X114782253Y-70603967D01*
X114806286Y-70599186D01*
X114828923Y-70589810D01*
X114842691Y-70582451D01*
X114849705Y-70580323D01*
X114863140Y-70579000D01*
X115176860Y-70579000D01*
X115190295Y-70580323D01*
X115197309Y-70582451D01*
X115211077Y-70589810D01*
X115233716Y-70599187D01*
X115257749Y-70603967D01*
X115282253Y-70603967D01*
X115306286Y-70599186D01*
X115328923Y-70589810D01*
X115342691Y-70582451D01*
X115349705Y-70580323D01*
X115363140Y-70579000D01*
X115676860Y-70579000D01*
X115690295Y-70580323D01*
X115697309Y-70582451D01*
X115711077Y-70589810D01*
X115733716Y-70599187D01*
X115757749Y-70603967D01*
X115782253Y-70603967D01*
X115806286Y-70599186D01*
X115828923Y-70589810D01*
X115842691Y-70582451D01*
X115849705Y-70580323D01*
X115863140Y-70579000D01*
X116176860Y-70579000D01*
X116190295Y-70580323D01*
X116197310Y-70582451D01*
X116203776Y-70585908D01*
X116209442Y-70590558D01*
X116214092Y-70596224D01*
X116217549Y-70602690D01*
X116219677Y-70609705D01*
X116221000Y-70623140D01*
X116221000Y-72186860D01*
X116219677Y-72200295D01*
X116217549Y-72207310D01*
X116214092Y-72213776D01*
X116209442Y-72219442D01*
X116203776Y-72224092D01*
X116197310Y-72227549D01*
X116190295Y-72229677D01*
X116176860Y-72231000D01*
X115863140Y-72231000D01*
X115849705Y-72229677D01*
X115842691Y-72227549D01*
X115828923Y-72220190D01*
X115806284Y-72210813D01*
X115782251Y-72206033D01*
X115757747Y-72206033D01*
X115733714Y-72210814D01*
X115711077Y-72220190D01*
X115697309Y-72227549D01*
X115690295Y-72229677D01*
X115676860Y-72231000D01*
X115363140Y-72231000D01*
X115349705Y-72229677D01*
X115342691Y-72227549D01*
X115328923Y-72220190D01*
X115306284Y-72210813D01*
X115282251Y-72206033D01*
X115257747Y-72206033D01*
X115233714Y-72210814D01*
X115211077Y-72220190D01*
X115197309Y-72227549D01*
X115190295Y-72229677D01*
X115176860Y-72231000D01*
X114863140Y-72231000D01*
X114849705Y-72229677D01*
X114842691Y-72227549D01*
X114828923Y-72220190D01*
X114806284Y-72210813D01*
X114782251Y-72206033D01*
X114757747Y-72206033D01*
X114733714Y-72210814D01*
X114711077Y-72220190D01*
X114697309Y-72227549D01*
X114690295Y-72229677D01*
X114676860Y-72231000D01*
X114363140Y-72231000D01*
X114349705Y-72229677D01*
X114342691Y-72227549D01*
X114328923Y-72220190D01*
X114306284Y-72210813D01*
X114282251Y-72206033D01*
X114257747Y-72206033D01*
X114233714Y-72210814D01*
X114211077Y-72220190D01*
X114197309Y-72227549D01*
X114190295Y-72229677D01*
X114176860Y-72231000D01*
X113863140Y-72231000D01*
X113849705Y-72229677D01*
X113842691Y-72227549D01*
X113828923Y-72220190D01*
X113806284Y-72210813D01*
X113782251Y-72206033D01*
X113757747Y-72206033D01*
X113733714Y-72210814D01*
X113711077Y-72220190D01*
X113697309Y-72227549D01*
X113690295Y-72229677D01*
X113676860Y-72231000D01*
X113363140Y-72231000D01*
X113349705Y-72229677D01*
X113342691Y-72227549D01*
X113328923Y-72220190D01*
X113306284Y-72210813D01*
X113282251Y-72206033D01*
X113257747Y-72206033D01*
X113233714Y-72210814D01*
X113211077Y-72220190D01*
X113197309Y-72227549D01*
X113190295Y-72229677D01*
X113176860Y-72231000D01*
X112863140Y-72231000D01*
X112849705Y-72229677D01*
X112842691Y-72227549D01*
X112828923Y-72220190D01*
X112806284Y-72210813D01*
X112782251Y-72206033D01*
X112757747Y-72206033D01*
X112733714Y-72210814D01*
X112711077Y-72220190D01*
X112697309Y-72227549D01*
X112690295Y-72229677D01*
X112676860Y-72231000D01*
X112363140Y-72231000D01*
X112349705Y-72229677D01*
X112342691Y-72227549D01*
X112328923Y-72220190D01*
X112306284Y-72210813D01*
X112282251Y-72206033D01*
X112257747Y-72206033D01*
X112233714Y-72210814D01*
X112211077Y-72220190D01*
X112197309Y-72227549D01*
X112190295Y-72229677D01*
X112176860Y-72231000D01*
X111863140Y-72231000D01*
X111849705Y-72229677D01*
X111842691Y-72227549D01*
X111828923Y-72220190D01*
X111806284Y-72210813D01*
X111782251Y-72206033D01*
X111757747Y-72206033D01*
X111733714Y-72210814D01*
X111711077Y-72220190D01*
X111697309Y-72227549D01*
X111690295Y-72229677D01*
X111676860Y-72231000D01*
X111363140Y-72231000D01*
X111349705Y-72229677D01*
X111342691Y-72227549D01*
X111328923Y-72220190D01*
X111306284Y-72210813D01*
X111282251Y-72206033D01*
X111257747Y-72206033D01*
X111233714Y-72210814D01*
X111211077Y-72220190D01*
X111197309Y-72227549D01*
X111190295Y-72229677D01*
X111176860Y-72231000D01*
X110863140Y-72231000D01*
X110849705Y-72229677D01*
X110842691Y-72227549D01*
X110828923Y-72220190D01*
X110806284Y-72210813D01*
X110782251Y-72206033D01*
X110757747Y-72206033D01*
X110733714Y-72210814D01*
X110711077Y-72220190D01*
X110697309Y-72227549D01*
X110690295Y-72229677D01*
X110676860Y-72231000D01*
X110363140Y-72231000D01*
X110349705Y-72229677D01*
X110342691Y-72227549D01*
X110328923Y-72220190D01*
X110306284Y-72210813D01*
X110282251Y-72206033D01*
X110257747Y-72206033D01*
X110233714Y-72210814D01*
X110211077Y-72220190D01*
X110197309Y-72227549D01*
X110190295Y-72229677D01*
X110176860Y-72231000D01*
X109863140Y-72231000D01*
X109849705Y-72229677D01*
X109842691Y-72227549D01*
X109828923Y-72220190D01*
X109806284Y-72210813D01*
X109782251Y-72206033D01*
X109757747Y-72206033D01*
X109733714Y-72210814D01*
X109711077Y-72220190D01*
X109697309Y-72227549D01*
X109690295Y-72229677D01*
X109676860Y-72231000D01*
X109363140Y-72231000D01*
X109349705Y-72229677D01*
X109342691Y-72227549D01*
X109328923Y-72220190D01*
X109306284Y-72210813D01*
X109282251Y-72206033D01*
X109257747Y-72206033D01*
X109233714Y-72210814D01*
X109211077Y-72220190D01*
X109197309Y-72227549D01*
X109190295Y-72229677D01*
X109176860Y-72231000D01*
X108863140Y-72231000D01*
X108849705Y-72229677D01*
X108842691Y-72227549D01*
X108828923Y-72220190D01*
X108806284Y-72210813D01*
X108782251Y-72206033D01*
X108757747Y-72206033D01*
X108733714Y-72210814D01*
X108711077Y-72220190D01*
X108697309Y-72227549D01*
X108690295Y-72229677D01*
X108676860Y-72231000D01*
X108363140Y-72231000D01*
X108349705Y-72229677D01*
X108342690Y-72227549D01*
X108336224Y-72224092D01*
X108330558Y-72219442D01*
X108325908Y-72213776D01*
X108322451Y-72207310D01*
X108320323Y-72200295D01*
X108319000Y-72186860D01*
X108319000Y-70623140D01*
X108320323Y-70609705D01*
X108322451Y-70602690D01*
X108325908Y-70596224D01*
X108330558Y-70590558D01*
X108336224Y-70585908D01*
X108342690Y-70582451D01*
X108349705Y-70580323D01*
X108363140Y-70579000D01*
X108676860Y-70579000D01*
X108690295Y-70580323D01*
G37*
G36*
X122688674Y-70603465D02*
G01*
X122726367Y-70614899D01*
X122761103Y-70633466D01*
X122791548Y-70658452D01*
X122816534Y-70688897D01*
X122835101Y-70723633D01*
X122846535Y-70761326D01*
X122851000Y-70806661D01*
X122851000Y-71643339D01*
X122846535Y-71688674D01*
X122835101Y-71726367D01*
X122816534Y-71761103D01*
X122791548Y-71791548D01*
X122761103Y-71816534D01*
X122726367Y-71835101D01*
X122688674Y-71846535D01*
X122643339Y-71851000D01*
X121556661Y-71851000D01*
X121511326Y-71846535D01*
X121473633Y-71835101D01*
X121438897Y-71816534D01*
X121408452Y-71791548D01*
X121383466Y-71761103D01*
X121364899Y-71726367D01*
X121353465Y-71688674D01*
X121349000Y-71643339D01*
X121349000Y-70806661D01*
X121353465Y-70761326D01*
X121364899Y-70723633D01*
X121383466Y-70688897D01*
X121408452Y-70658452D01*
X121438897Y-70633466D01*
X121473633Y-70614899D01*
X121511326Y-70603465D01*
X121556661Y-70599000D01*
X122643339Y-70599000D01*
X122688674Y-70603465D01*
G37*
G36*
X125888674Y-70603465D02*
G01*
X125926367Y-70614899D01*
X125961103Y-70633466D01*
X125991548Y-70658452D01*
X126016534Y-70688897D01*
X126035101Y-70723633D01*
X126046535Y-70761326D01*
X126051000Y-70806661D01*
X126051000Y-71643339D01*
X126046535Y-71688674D01*
X126035101Y-71726367D01*
X126016534Y-71761103D01*
X125991548Y-71791548D01*
X125961103Y-71816534D01*
X125926367Y-71835101D01*
X125888674Y-71846535D01*
X125843339Y-71851000D01*
X124756661Y-71851000D01*
X124711326Y-71846535D01*
X124673633Y-71835101D01*
X124638897Y-71816534D01*
X124608452Y-71791548D01*
X124583466Y-71761103D01*
X124564899Y-71726367D01*
X124553465Y-71688674D01*
X124549000Y-71643339D01*
X124549000Y-70806661D01*
X124553465Y-70761326D01*
X124564899Y-70723633D01*
X124583466Y-70688897D01*
X124608452Y-70658452D01*
X124638897Y-70633466D01*
X124673633Y-70614899D01*
X124711326Y-70603465D01*
X124756661Y-70599000D01*
X125843339Y-70599000D01*
X125888674Y-70603465D01*
G37*
G36*
X103418674Y-68883465D02*
G01*
X103456367Y-68894899D01*
X103491103Y-68913466D01*
X103521548Y-68938452D01*
X103546534Y-68968897D01*
X103565101Y-69003633D01*
X103576535Y-69041326D01*
X103581000Y-69086661D01*
X103581000Y-70173339D01*
X103576535Y-70218674D01*
X103565101Y-70256367D01*
X103546534Y-70291103D01*
X103521548Y-70321548D01*
X103491103Y-70346534D01*
X103456367Y-70365101D01*
X103418674Y-70376535D01*
X103373339Y-70381000D01*
X102536661Y-70381000D01*
X102491326Y-70376535D01*
X102453633Y-70365101D01*
X102418897Y-70346534D01*
X102388452Y-70321548D01*
X102363466Y-70291103D01*
X102344899Y-70256367D01*
X102333465Y-70218674D01*
X102329000Y-70173339D01*
X102329000Y-69086661D01*
X102333465Y-69041326D01*
X102344899Y-69003633D01*
X102363466Y-68968897D01*
X102388452Y-68938452D01*
X102418897Y-68913466D01*
X102453633Y-68894899D01*
X102491326Y-68883465D01*
X102536661Y-68879000D01*
X103373339Y-68879000D01*
X103418674Y-68883465D01*
G37*
G36*
X101368674Y-68883465D02*
G01*
X101406367Y-68894899D01*
X101441103Y-68913466D01*
X101471548Y-68938452D01*
X101496534Y-68968897D01*
X101515101Y-69003633D01*
X101526535Y-69041326D01*
X101531000Y-69086661D01*
X101531000Y-70173339D01*
X101526535Y-70218674D01*
X101515101Y-70256367D01*
X101496534Y-70291103D01*
X101471548Y-70321548D01*
X101441103Y-70346534D01*
X101406367Y-70365101D01*
X101368674Y-70376535D01*
X101323339Y-70381000D01*
X100486661Y-70381000D01*
X100441326Y-70376535D01*
X100403633Y-70365101D01*
X100368897Y-70346534D01*
X100338452Y-70321548D01*
X100313466Y-70291103D01*
X100294899Y-70256367D01*
X100283465Y-70218674D01*
X100279000Y-70173339D01*
X100279000Y-69086661D01*
X100283465Y-69041326D01*
X100294899Y-69003633D01*
X100313466Y-68968897D01*
X100338452Y-68938452D01*
X100368897Y-68913466D01*
X100403633Y-68894899D01*
X100441326Y-68883465D01*
X100486661Y-68879000D01*
X101323339Y-68879000D01*
X101368674Y-68883465D01*
G37*
G36*
X122688674Y-68553465D02*
G01*
X122726367Y-68564899D01*
X122761103Y-68583466D01*
X122791548Y-68608452D01*
X122816534Y-68638897D01*
X122835101Y-68673633D01*
X122846535Y-68711326D01*
X122851000Y-68756661D01*
X122851000Y-69593339D01*
X122846535Y-69638674D01*
X122835101Y-69676367D01*
X122816534Y-69711103D01*
X122791548Y-69741548D01*
X122761103Y-69766534D01*
X122726367Y-69785101D01*
X122688674Y-69796535D01*
X122643339Y-69801000D01*
X121556661Y-69801000D01*
X121511326Y-69796535D01*
X121473633Y-69785101D01*
X121438897Y-69766534D01*
X121408452Y-69741548D01*
X121383466Y-69711103D01*
X121364899Y-69676367D01*
X121353465Y-69638674D01*
X121349000Y-69593339D01*
X121349000Y-68756661D01*
X121353465Y-68711326D01*
X121364899Y-68673633D01*
X121383466Y-68638897D01*
X121408452Y-68608452D01*
X121438897Y-68583466D01*
X121473633Y-68564899D01*
X121511326Y-68553465D01*
X121556661Y-68549000D01*
X122643339Y-68549000D01*
X122688674Y-68553465D01*
G37*
G36*
X125888674Y-68553465D02*
G01*
X125926367Y-68564899D01*
X125961103Y-68583466D01*
X125991548Y-68608452D01*
X126016534Y-68638897D01*
X126035101Y-68673633D01*
X126046535Y-68711326D01*
X126051000Y-68756661D01*
X126051000Y-69593339D01*
X126046535Y-69638674D01*
X126035101Y-69676367D01*
X126016534Y-69711103D01*
X125991548Y-69741548D01*
X125961103Y-69766534D01*
X125926367Y-69785101D01*
X125888674Y-69796535D01*
X125843339Y-69801000D01*
X124756661Y-69801000D01*
X124711326Y-69796535D01*
X124673633Y-69785101D01*
X124638897Y-69766534D01*
X124608452Y-69741548D01*
X124583466Y-69711103D01*
X124564899Y-69676367D01*
X124553465Y-69638674D01*
X124549000Y-69593339D01*
X124549000Y-68756661D01*
X124553465Y-68711326D01*
X124564899Y-68673633D01*
X124583466Y-68638897D01*
X124608452Y-68608452D01*
X124638897Y-68583466D01*
X124673633Y-68564899D01*
X124711326Y-68553465D01*
X124756661Y-68549000D01*
X125843339Y-68549000D01*
X125888674Y-68553465D01*
G37*
G36*
X118740295Y-61780323D02*
G01*
X118747310Y-61782451D01*
X118753776Y-61785908D01*
X118759442Y-61790558D01*
X118764092Y-61796224D01*
X118767549Y-61802690D01*
X118769677Y-61809705D01*
X118771000Y-61823140D01*
X118771000Y-62136860D01*
X118769677Y-62150295D01*
X118767549Y-62157309D01*
X118760190Y-62171077D01*
X118750813Y-62193716D01*
X118746033Y-62217749D01*
X118746033Y-62242253D01*
X118750814Y-62266286D01*
X118760190Y-62288923D01*
X118767549Y-62302691D01*
X118769677Y-62309705D01*
X118771000Y-62323140D01*
X118771000Y-62636860D01*
X118769677Y-62650295D01*
X118767549Y-62657309D01*
X118760190Y-62671077D01*
X118750813Y-62693716D01*
X118746033Y-62717749D01*
X118746033Y-62742253D01*
X118750814Y-62766286D01*
X118760190Y-62788923D01*
X118767549Y-62802691D01*
X118769677Y-62809705D01*
X118771000Y-62823140D01*
X118771000Y-63136860D01*
X118769677Y-63150295D01*
X118767549Y-63157309D01*
X118760190Y-63171077D01*
X118750813Y-63193716D01*
X118746033Y-63217749D01*
X118746033Y-63242253D01*
X118750814Y-63266286D01*
X118760190Y-63288923D01*
X118767549Y-63302691D01*
X118769677Y-63309705D01*
X118771000Y-63323140D01*
X118771000Y-63636860D01*
X118769677Y-63650295D01*
X118767549Y-63657309D01*
X118760190Y-63671077D01*
X118750813Y-63693716D01*
X118746033Y-63717749D01*
X118746033Y-63742253D01*
X118750814Y-63766286D01*
X118760190Y-63788923D01*
X118767549Y-63802691D01*
X118769677Y-63809705D01*
X118771000Y-63823140D01*
X118771000Y-64136860D01*
X118769677Y-64150295D01*
X118767549Y-64157309D01*
X118760190Y-64171077D01*
X118750813Y-64193716D01*
X118746033Y-64217749D01*
X118746033Y-64242253D01*
X118750814Y-64266286D01*
X118760190Y-64288923D01*
X118767549Y-64302691D01*
X118769677Y-64309705D01*
X118771000Y-64323140D01*
X118771000Y-64636860D01*
X118769677Y-64650295D01*
X118767549Y-64657309D01*
X118760190Y-64671077D01*
X118750813Y-64693716D01*
X118746033Y-64717749D01*
X118746033Y-64742253D01*
X118750814Y-64766286D01*
X118760190Y-64788923D01*
X118767549Y-64802691D01*
X118769677Y-64809705D01*
X118771000Y-64823140D01*
X118771000Y-65136860D01*
X118769677Y-65150295D01*
X118767549Y-65157309D01*
X118760190Y-65171077D01*
X118750813Y-65193716D01*
X118746033Y-65217749D01*
X118746033Y-65242253D01*
X118750814Y-65266286D01*
X118760190Y-65288923D01*
X118767549Y-65302691D01*
X118769677Y-65309705D01*
X118771000Y-65323140D01*
X118771000Y-65636860D01*
X118769677Y-65650295D01*
X118767549Y-65657309D01*
X118760190Y-65671077D01*
X118750813Y-65693716D01*
X118746033Y-65717749D01*
X118746033Y-65742253D01*
X118750814Y-65766286D01*
X118760190Y-65788923D01*
X118767549Y-65802691D01*
X118769677Y-65809705D01*
X118771000Y-65823140D01*
X118771000Y-66136860D01*
X118769677Y-66150295D01*
X118767549Y-66157309D01*
X118760190Y-66171077D01*
X118750813Y-66193716D01*
X118746033Y-66217749D01*
X118746033Y-66242253D01*
X118750814Y-66266286D01*
X118760190Y-66288923D01*
X118767549Y-66302691D01*
X118769677Y-66309705D01*
X118771000Y-66323140D01*
X118771000Y-66636860D01*
X118769677Y-66650295D01*
X118767549Y-66657309D01*
X118760190Y-66671077D01*
X118750813Y-66693716D01*
X118746033Y-66717749D01*
X118746033Y-66742253D01*
X118750814Y-66766286D01*
X118760190Y-66788923D01*
X118767549Y-66802691D01*
X118769677Y-66809705D01*
X118771000Y-66823140D01*
X118771000Y-67136860D01*
X118769677Y-67150295D01*
X118767549Y-67157309D01*
X118760190Y-67171077D01*
X118750813Y-67193716D01*
X118746033Y-67217749D01*
X118746033Y-67242253D01*
X118750814Y-67266286D01*
X118760190Y-67288923D01*
X118767549Y-67302691D01*
X118769677Y-67309705D01*
X118771000Y-67323140D01*
X118771000Y-67636860D01*
X118769677Y-67650295D01*
X118767549Y-67657309D01*
X118760190Y-67671077D01*
X118750813Y-67693716D01*
X118746033Y-67717749D01*
X118746033Y-67742253D01*
X118750814Y-67766286D01*
X118760190Y-67788923D01*
X118767549Y-67802691D01*
X118769677Y-67809705D01*
X118771000Y-67823140D01*
X118771000Y-68136860D01*
X118769677Y-68150295D01*
X118767549Y-68157309D01*
X118760190Y-68171077D01*
X118750813Y-68193716D01*
X118746033Y-68217749D01*
X118746033Y-68242253D01*
X118750814Y-68266286D01*
X118760190Y-68288923D01*
X118767549Y-68302691D01*
X118769677Y-68309705D01*
X118771000Y-68323140D01*
X118771000Y-68636860D01*
X118769677Y-68650295D01*
X118767549Y-68657309D01*
X118760190Y-68671077D01*
X118750813Y-68693716D01*
X118746033Y-68717749D01*
X118746033Y-68742253D01*
X118750814Y-68766286D01*
X118760190Y-68788923D01*
X118767549Y-68802691D01*
X118769677Y-68809705D01*
X118771000Y-68823140D01*
X118771000Y-69136860D01*
X118769677Y-69150295D01*
X118767549Y-69157309D01*
X118760190Y-69171077D01*
X118750813Y-69193716D01*
X118746033Y-69217749D01*
X118746033Y-69242253D01*
X118750814Y-69266286D01*
X118760190Y-69288923D01*
X118767549Y-69302691D01*
X118769677Y-69309705D01*
X118771000Y-69323140D01*
X118771000Y-69636860D01*
X118769677Y-69650295D01*
X118767549Y-69657310D01*
X118764092Y-69663776D01*
X118759442Y-69669442D01*
X118753776Y-69674092D01*
X118747310Y-69677549D01*
X118740295Y-69679677D01*
X118726860Y-69681000D01*
X117163140Y-69681000D01*
X117149705Y-69679677D01*
X117142690Y-69677549D01*
X117136224Y-69674092D01*
X117130558Y-69669442D01*
X117125908Y-69663776D01*
X117122451Y-69657310D01*
X117120323Y-69650295D01*
X117119000Y-69636860D01*
X117119000Y-69323140D01*
X117120323Y-69309705D01*
X117122451Y-69302691D01*
X117129810Y-69288923D01*
X117139187Y-69266284D01*
X117143967Y-69242251D01*
X117143967Y-69217747D01*
X117139186Y-69193714D01*
X117129810Y-69171077D01*
X117122451Y-69157309D01*
X117120323Y-69150295D01*
X117119000Y-69136860D01*
X117119000Y-68823140D01*
X117120323Y-68809705D01*
X117122451Y-68802691D01*
X117129810Y-68788923D01*
X117139187Y-68766284D01*
X117143967Y-68742251D01*
X117143967Y-68717747D01*
X117139186Y-68693714D01*
X117129810Y-68671077D01*
X117122451Y-68657309D01*
X117120323Y-68650295D01*
X117119000Y-68636860D01*
X117119000Y-68323140D01*
X117120323Y-68309705D01*
X117122451Y-68302691D01*
X117129810Y-68288923D01*
X117139187Y-68266284D01*
X117143967Y-68242251D01*
X117143967Y-68217747D01*
X117139186Y-68193714D01*
X117129810Y-68171077D01*
X117122451Y-68157309D01*
X117120323Y-68150295D01*
X117119000Y-68136860D01*
X117119000Y-67823140D01*
X117120323Y-67809705D01*
X117122451Y-67802691D01*
X117129810Y-67788923D01*
X117139187Y-67766284D01*
X117143967Y-67742251D01*
X117143967Y-67717747D01*
X117139186Y-67693714D01*
X117129810Y-67671077D01*
X117122451Y-67657309D01*
X117120323Y-67650295D01*
X117119000Y-67636860D01*
X117119000Y-67323140D01*
X117120323Y-67309705D01*
X117122451Y-67302691D01*
X117129810Y-67288923D01*
X117139187Y-67266284D01*
X117143967Y-67242251D01*
X117143967Y-67217747D01*
X117139186Y-67193714D01*
X117129810Y-67171077D01*
X117122451Y-67157309D01*
X117120323Y-67150295D01*
X117119000Y-67136860D01*
X117119000Y-66823140D01*
X117120323Y-66809705D01*
X117122451Y-66802691D01*
X117129810Y-66788923D01*
X117139187Y-66766284D01*
X117143967Y-66742251D01*
X117143967Y-66717747D01*
X117139186Y-66693714D01*
X117129810Y-66671077D01*
X117122451Y-66657309D01*
X117120323Y-66650295D01*
X117119000Y-66636860D01*
X117119000Y-66323140D01*
X117120323Y-66309705D01*
X117122451Y-66302691D01*
X117129810Y-66288923D01*
X117139187Y-66266284D01*
X117143967Y-66242251D01*
X117143967Y-66217747D01*
X117139186Y-66193714D01*
X117129810Y-66171077D01*
X117122451Y-66157309D01*
X117120323Y-66150295D01*
X117119000Y-66136860D01*
X117119000Y-65823140D01*
X117120323Y-65809705D01*
X117122451Y-65802691D01*
X117129810Y-65788923D01*
X117139187Y-65766284D01*
X117143967Y-65742251D01*
X117143967Y-65717747D01*
X117139186Y-65693714D01*
X117129810Y-65671077D01*
X117122451Y-65657309D01*
X117120323Y-65650295D01*
X117119000Y-65636860D01*
X117119000Y-65323140D01*
X117120323Y-65309705D01*
X117122451Y-65302691D01*
X117129810Y-65288923D01*
X117139187Y-65266284D01*
X117143967Y-65242251D01*
X117143967Y-65217747D01*
X117139186Y-65193714D01*
X117129810Y-65171077D01*
X117122451Y-65157309D01*
X117120323Y-65150295D01*
X117119000Y-65136860D01*
X117119000Y-64823140D01*
X117120323Y-64809705D01*
X117122451Y-64802691D01*
X117129810Y-64788923D01*
X117139187Y-64766284D01*
X117143967Y-64742251D01*
X117143967Y-64717747D01*
X117139186Y-64693714D01*
X117129810Y-64671077D01*
X117122451Y-64657309D01*
X117120323Y-64650295D01*
X117119000Y-64636860D01*
X117119000Y-64323140D01*
X117120323Y-64309705D01*
X117122451Y-64302691D01*
X117129810Y-64288923D01*
X117139187Y-64266284D01*
X117143967Y-64242251D01*
X117143967Y-64217747D01*
X117139186Y-64193714D01*
X117129810Y-64171077D01*
X117122451Y-64157309D01*
X117120323Y-64150295D01*
X117119000Y-64136860D01*
X117119000Y-63823140D01*
X117120323Y-63809705D01*
X117122451Y-63802691D01*
X117129810Y-63788923D01*
X117139187Y-63766284D01*
X117143967Y-63742251D01*
X117143967Y-63717747D01*
X117139186Y-63693714D01*
X117129810Y-63671077D01*
X117122451Y-63657309D01*
X117120323Y-63650295D01*
X117119000Y-63636860D01*
X117119000Y-63323140D01*
X117120323Y-63309705D01*
X117122451Y-63302691D01*
X117129810Y-63288923D01*
X117139187Y-63266284D01*
X117143967Y-63242251D01*
X117143967Y-63217747D01*
X117139186Y-63193714D01*
X117129810Y-63171077D01*
X117122451Y-63157309D01*
X117120323Y-63150295D01*
X117119000Y-63136860D01*
X117119000Y-62823140D01*
X117120323Y-62809705D01*
X117122451Y-62802691D01*
X117129810Y-62788923D01*
X117139187Y-62766284D01*
X117143967Y-62742251D01*
X117143967Y-62717747D01*
X117139186Y-62693714D01*
X117129810Y-62671077D01*
X117122451Y-62657309D01*
X117120323Y-62650295D01*
X117119000Y-62636860D01*
X117119000Y-62323140D01*
X117120323Y-62309705D01*
X117122451Y-62302691D01*
X117129810Y-62288923D01*
X117139187Y-62266284D01*
X117143967Y-62242251D01*
X117143967Y-62217747D01*
X117139186Y-62193714D01*
X117129810Y-62171077D01*
X117122451Y-62157309D01*
X117120323Y-62150295D01*
X117119000Y-62136860D01*
X117119000Y-61823140D01*
X117120323Y-61809705D01*
X117122451Y-61802690D01*
X117125908Y-61796224D01*
X117130558Y-61790558D01*
X117136224Y-61785908D01*
X117142690Y-61782451D01*
X117149705Y-61780323D01*
X117163140Y-61779000D01*
X118726860Y-61779000D01*
X118740295Y-61780323D01*
G37*
G36*
X107390295Y-61780323D02*
G01*
X107397310Y-61782451D01*
X107403776Y-61785908D01*
X107409442Y-61790558D01*
X107414092Y-61796224D01*
X107417549Y-61802690D01*
X107419677Y-61809705D01*
X107421000Y-61823140D01*
X107421000Y-62136860D01*
X107419677Y-62150295D01*
X107417549Y-62157309D01*
X107410190Y-62171077D01*
X107400813Y-62193716D01*
X107396033Y-62217749D01*
X107396033Y-62242253D01*
X107400814Y-62266286D01*
X107410190Y-62288923D01*
X107417549Y-62302691D01*
X107419677Y-62309705D01*
X107421000Y-62323140D01*
X107421000Y-62636860D01*
X107419677Y-62650295D01*
X107417549Y-62657309D01*
X107410190Y-62671077D01*
X107400813Y-62693716D01*
X107396033Y-62717749D01*
X107396033Y-62742253D01*
X107400814Y-62766286D01*
X107410190Y-62788923D01*
X107417549Y-62802691D01*
X107419677Y-62809705D01*
X107421000Y-62823140D01*
X107421000Y-63136860D01*
X107419677Y-63150295D01*
X107417549Y-63157309D01*
X107410190Y-63171077D01*
X107400813Y-63193716D01*
X107396033Y-63217749D01*
X107396033Y-63242253D01*
X107400814Y-63266286D01*
X107410190Y-63288923D01*
X107417549Y-63302691D01*
X107419677Y-63309705D01*
X107421000Y-63323140D01*
X107421000Y-63636860D01*
X107419677Y-63650295D01*
X107417549Y-63657309D01*
X107410190Y-63671077D01*
X107400813Y-63693716D01*
X107396033Y-63717749D01*
X107396033Y-63742253D01*
X107400814Y-63766286D01*
X107410190Y-63788923D01*
X107417549Y-63802691D01*
X107419677Y-63809705D01*
X107421000Y-63823140D01*
X107421000Y-64136860D01*
X107419677Y-64150295D01*
X107417549Y-64157309D01*
X107410190Y-64171077D01*
X107400813Y-64193716D01*
X107396033Y-64217749D01*
X107396033Y-64242253D01*
X107400814Y-64266286D01*
X107410190Y-64288923D01*
X107417549Y-64302691D01*
X107419677Y-64309705D01*
X107421000Y-64323140D01*
X107421000Y-64636860D01*
X107419677Y-64650295D01*
X107417549Y-64657309D01*
X107410190Y-64671077D01*
X107400813Y-64693716D01*
X107396033Y-64717749D01*
X107396033Y-64742253D01*
X107400814Y-64766286D01*
X107410190Y-64788923D01*
X107417549Y-64802691D01*
X107419677Y-64809705D01*
X107421000Y-64823140D01*
X107421000Y-65136860D01*
X107419677Y-65150295D01*
X107417549Y-65157309D01*
X107410190Y-65171077D01*
X107400813Y-65193716D01*
X107396033Y-65217749D01*
X107396033Y-65242253D01*
X107400814Y-65266286D01*
X107410190Y-65288923D01*
X107417549Y-65302691D01*
X107419677Y-65309705D01*
X107421000Y-65323140D01*
X107421000Y-65636860D01*
X107419677Y-65650295D01*
X107417549Y-65657309D01*
X107410190Y-65671077D01*
X107400813Y-65693716D01*
X107396033Y-65717749D01*
X107396033Y-65742253D01*
X107400814Y-65766286D01*
X107410190Y-65788923D01*
X107417549Y-65802691D01*
X107419677Y-65809705D01*
X107421000Y-65823140D01*
X107421000Y-66136860D01*
X107419677Y-66150295D01*
X107417549Y-66157309D01*
X107410190Y-66171077D01*
X107400813Y-66193716D01*
X107396033Y-66217749D01*
X107396033Y-66242253D01*
X107400814Y-66266286D01*
X107410190Y-66288923D01*
X107417549Y-66302691D01*
X107419677Y-66309705D01*
X107421000Y-66323140D01*
X107421000Y-66636860D01*
X107419677Y-66650295D01*
X107417549Y-66657309D01*
X107410190Y-66671077D01*
X107400813Y-66693716D01*
X107396033Y-66717749D01*
X107396033Y-66742253D01*
X107400814Y-66766286D01*
X107410190Y-66788923D01*
X107417549Y-66802691D01*
X107419677Y-66809705D01*
X107421000Y-66823140D01*
X107421000Y-67136860D01*
X107419677Y-67150295D01*
X107417549Y-67157309D01*
X107410190Y-67171077D01*
X107400813Y-67193716D01*
X107396033Y-67217749D01*
X107396033Y-67242253D01*
X107400814Y-67266286D01*
X107410190Y-67288923D01*
X107417549Y-67302691D01*
X107419677Y-67309705D01*
X107421000Y-67323140D01*
X107421000Y-67636860D01*
X107419677Y-67650295D01*
X107417549Y-67657309D01*
X107410190Y-67671077D01*
X107400813Y-67693716D01*
X107396033Y-67717749D01*
X107396033Y-67742253D01*
X107400814Y-67766286D01*
X107410190Y-67788923D01*
X107417549Y-67802691D01*
X107419677Y-67809705D01*
X107421000Y-67823140D01*
X107421000Y-68136860D01*
X107419677Y-68150295D01*
X107417549Y-68157309D01*
X107410190Y-68171077D01*
X107400813Y-68193716D01*
X107396033Y-68217749D01*
X107396033Y-68242253D01*
X107400814Y-68266286D01*
X107410190Y-68288923D01*
X107417549Y-68302691D01*
X107419677Y-68309705D01*
X107421000Y-68323140D01*
X107421000Y-68636860D01*
X107419677Y-68650295D01*
X107417549Y-68657309D01*
X107410190Y-68671077D01*
X107400813Y-68693716D01*
X107396033Y-68717749D01*
X107396033Y-68742253D01*
X107400814Y-68766286D01*
X107410190Y-68788923D01*
X107417549Y-68802691D01*
X107419677Y-68809705D01*
X107421000Y-68823140D01*
X107421000Y-69136860D01*
X107419677Y-69150295D01*
X107417549Y-69157309D01*
X107410190Y-69171077D01*
X107400813Y-69193716D01*
X107396033Y-69217749D01*
X107396033Y-69242253D01*
X107400814Y-69266286D01*
X107410190Y-69288923D01*
X107417549Y-69302691D01*
X107419677Y-69309705D01*
X107421000Y-69323140D01*
X107421000Y-69636860D01*
X107419677Y-69650295D01*
X107417549Y-69657310D01*
X107414092Y-69663776D01*
X107409442Y-69669442D01*
X107403776Y-69674092D01*
X107397310Y-69677549D01*
X107390295Y-69679677D01*
X107376860Y-69681000D01*
X105813140Y-69681000D01*
X105799705Y-69679677D01*
X105792690Y-69677549D01*
X105786224Y-69674092D01*
X105780558Y-69669442D01*
X105775908Y-69663776D01*
X105772451Y-69657310D01*
X105770323Y-69650295D01*
X105769000Y-69636860D01*
X105769000Y-69323140D01*
X105770323Y-69309705D01*
X105772451Y-69302691D01*
X105779810Y-69288923D01*
X105789187Y-69266284D01*
X105793967Y-69242251D01*
X105793967Y-69217747D01*
X105789186Y-69193714D01*
X105779810Y-69171077D01*
X105772451Y-69157309D01*
X105770323Y-69150295D01*
X105769000Y-69136860D01*
X105769000Y-68823140D01*
X105770323Y-68809705D01*
X105772451Y-68802691D01*
X105779810Y-68788923D01*
X105789187Y-68766284D01*
X105793967Y-68742251D01*
X105793967Y-68717747D01*
X105789186Y-68693714D01*
X105779810Y-68671077D01*
X105772451Y-68657309D01*
X105770323Y-68650295D01*
X105769000Y-68636860D01*
X105769000Y-68323140D01*
X105770323Y-68309705D01*
X105772451Y-68302691D01*
X105779810Y-68288923D01*
X105789187Y-68266284D01*
X105793967Y-68242251D01*
X105793967Y-68217747D01*
X105789186Y-68193714D01*
X105779810Y-68171077D01*
X105772451Y-68157309D01*
X105770323Y-68150295D01*
X105769000Y-68136860D01*
X105769000Y-67823140D01*
X105770323Y-67809705D01*
X105772451Y-67802691D01*
X105779810Y-67788923D01*
X105789187Y-67766284D01*
X105793967Y-67742251D01*
X105793967Y-67717747D01*
X105789186Y-67693714D01*
X105779810Y-67671077D01*
X105772451Y-67657309D01*
X105770323Y-67650295D01*
X105769000Y-67636860D01*
X105769000Y-67323140D01*
X105770323Y-67309705D01*
X105772451Y-67302691D01*
X105779810Y-67288923D01*
X105789187Y-67266284D01*
X105793967Y-67242251D01*
X105793967Y-67217747D01*
X105789186Y-67193714D01*
X105779810Y-67171077D01*
X105772451Y-67157309D01*
X105770323Y-67150295D01*
X105769000Y-67136860D01*
X105769000Y-66823140D01*
X105770323Y-66809705D01*
X105772451Y-66802691D01*
X105779810Y-66788923D01*
X105789187Y-66766284D01*
X105793967Y-66742251D01*
X105793967Y-66717747D01*
X105789186Y-66693714D01*
X105779810Y-66671077D01*
X105772451Y-66657309D01*
X105770323Y-66650295D01*
X105769000Y-66636860D01*
X105769000Y-66323140D01*
X105770323Y-66309705D01*
X105772451Y-66302691D01*
X105779810Y-66288923D01*
X105789187Y-66266284D01*
X105793967Y-66242251D01*
X105793967Y-66217747D01*
X105789186Y-66193714D01*
X105779810Y-66171077D01*
X105772451Y-66157309D01*
X105770323Y-66150295D01*
X105769000Y-66136860D01*
X105769000Y-65823140D01*
X105770323Y-65809705D01*
X105772451Y-65802691D01*
X105779810Y-65788923D01*
X105789187Y-65766284D01*
X105793967Y-65742251D01*
X105793967Y-65717747D01*
X105789186Y-65693714D01*
X105779810Y-65671077D01*
X105772451Y-65657309D01*
X105770323Y-65650295D01*
X105769000Y-65636860D01*
X105769000Y-65323140D01*
X105770323Y-65309705D01*
X105772451Y-65302691D01*
X105779810Y-65288923D01*
X105789187Y-65266284D01*
X105793967Y-65242251D01*
X105793967Y-65217747D01*
X105789186Y-65193714D01*
X105779810Y-65171077D01*
X105772451Y-65157309D01*
X105770323Y-65150295D01*
X105769000Y-65136860D01*
X105769000Y-64823140D01*
X105770323Y-64809705D01*
X105772451Y-64802691D01*
X105779810Y-64788923D01*
X105789187Y-64766284D01*
X105793967Y-64742251D01*
X105793967Y-64717747D01*
X105789186Y-64693714D01*
X105779810Y-64671077D01*
X105772451Y-64657309D01*
X105770323Y-64650295D01*
X105769000Y-64636860D01*
X105769000Y-64323140D01*
X105770323Y-64309705D01*
X105772451Y-64302691D01*
X105779810Y-64288923D01*
X105789187Y-64266284D01*
X105793967Y-64242251D01*
X105793967Y-64217747D01*
X105789186Y-64193714D01*
X105779810Y-64171077D01*
X105772451Y-64157309D01*
X105770323Y-64150295D01*
X105769000Y-64136860D01*
X105769000Y-63823140D01*
X105770323Y-63809705D01*
X105772451Y-63802691D01*
X105779810Y-63788923D01*
X105789187Y-63766284D01*
X105793967Y-63742251D01*
X105793967Y-63717747D01*
X105789186Y-63693714D01*
X105779810Y-63671077D01*
X105772451Y-63657309D01*
X105770323Y-63650295D01*
X105769000Y-63636860D01*
X105769000Y-63323140D01*
X105770323Y-63309705D01*
X105772451Y-63302691D01*
X105779810Y-63288923D01*
X105789187Y-63266284D01*
X105793967Y-63242251D01*
X105793967Y-63217747D01*
X105789186Y-63193714D01*
X105779810Y-63171077D01*
X105772451Y-63157309D01*
X105770323Y-63150295D01*
X105769000Y-63136860D01*
X105769000Y-62823140D01*
X105770323Y-62809705D01*
X105772451Y-62802691D01*
X105779810Y-62788923D01*
X105789187Y-62766284D01*
X105793967Y-62742251D01*
X105793967Y-62717747D01*
X105789186Y-62693714D01*
X105779810Y-62671077D01*
X105772451Y-62657309D01*
X105770323Y-62650295D01*
X105769000Y-62636860D01*
X105769000Y-62323140D01*
X105770323Y-62309705D01*
X105772451Y-62302691D01*
X105779810Y-62288923D01*
X105789187Y-62266284D01*
X105793967Y-62242251D01*
X105793967Y-62217747D01*
X105789186Y-62193714D01*
X105779810Y-62171077D01*
X105772451Y-62157309D01*
X105770323Y-62150295D01*
X105769000Y-62136860D01*
X105769000Y-61823140D01*
X105770323Y-61809705D01*
X105772451Y-61802690D01*
X105775908Y-61796224D01*
X105780558Y-61790558D01*
X105786224Y-61785908D01*
X105792690Y-61782451D01*
X105799705Y-61780323D01*
X105813140Y-61779000D01*
X107376860Y-61779000D01*
X107390295Y-61780323D01*
G37*
G36*
X101368674Y-66343465D02*
G01*
X101406367Y-66354899D01*
X101441103Y-66373466D01*
X101471548Y-66398452D01*
X101496534Y-66428897D01*
X101515101Y-66463633D01*
X101526535Y-66501326D01*
X101531000Y-66546661D01*
X101531000Y-67633339D01*
X101526535Y-67678674D01*
X101515101Y-67716367D01*
X101496534Y-67751103D01*
X101471548Y-67781548D01*
X101441103Y-67806534D01*
X101406367Y-67825101D01*
X101368674Y-67836535D01*
X101323339Y-67841000D01*
X100486661Y-67841000D01*
X100441326Y-67836535D01*
X100403633Y-67825101D01*
X100368897Y-67806534D01*
X100338452Y-67781548D01*
X100313466Y-67751103D01*
X100294899Y-67716367D01*
X100283465Y-67678674D01*
X100279000Y-67633339D01*
X100279000Y-66546661D01*
X100283465Y-66501326D01*
X100294899Y-66463633D01*
X100313466Y-66428897D01*
X100338452Y-66398452D01*
X100368897Y-66373466D01*
X100403633Y-66354899D01*
X100441326Y-66343465D01*
X100486661Y-66339000D01*
X101323339Y-66339000D01*
X101368674Y-66343465D01*
G37*
G36*
X103418674Y-66343465D02*
G01*
X103456367Y-66354899D01*
X103491103Y-66373466D01*
X103521548Y-66398452D01*
X103546534Y-66428897D01*
X103565101Y-66463633D01*
X103576535Y-66501326D01*
X103581000Y-66546661D01*
X103581000Y-67633339D01*
X103576535Y-67678674D01*
X103565101Y-67716367D01*
X103546534Y-67751103D01*
X103521548Y-67781548D01*
X103491103Y-67806534D01*
X103456367Y-67825101D01*
X103418674Y-67836535D01*
X103373339Y-67841000D01*
X102536661Y-67841000D01*
X102491326Y-67836535D01*
X102453633Y-67825101D01*
X102418897Y-67806534D01*
X102388452Y-67781548D01*
X102363466Y-67751103D01*
X102344899Y-67716367D01*
X102333465Y-67678674D01*
X102329000Y-67633339D01*
X102329000Y-66546661D01*
X102333465Y-66501326D01*
X102344899Y-66463633D01*
X102363466Y-66428897D01*
X102388452Y-66398452D01*
X102418897Y-66373466D01*
X102453633Y-66354899D01*
X102491326Y-66343465D01*
X102536661Y-66339000D01*
X103373339Y-66339000D01*
X103418674Y-66343465D01*
G37*
G36*
X122158674Y-65293465D02*
G01*
X122196367Y-65304899D01*
X122231103Y-65323466D01*
X122261548Y-65348452D01*
X122286534Y-65378897D01*
X122305101Y-65413633D01*
X122316535Y-65451326D01*
X122321000Y-65496661D01*
X122321000Y-66583339D01*
X122316535Y-66628674D01*
X122305101Y-66666367D01*
X122286534Y-66701103D01*
X122261548Y-66731548D01*
X122231103Y-66756534D01*
X122196367Y-66775101D01*
X122158674Y-66786535D01*
X122113339Y-66791000D01*
X121276661Y-66791000D01*
X121231326Y-66786535D01*
X121193633Y-66775101D01*
X121158897Y-66756534D01*
X121128452Y-66731548D01*
X121103466Y-66701103D01*
X121084899Y-66666367D01*
X121073465Y-66628674D01*
X121069000Y-66583339D01*
X121069000Y-65496661D01*
X121073465Y-65451326D01*
X121084899Y-65413633D01*
X121103466Y-65378897D01*
X121128452Y-65348452D01*
X121158897Y-65323466D01*
X121193633Y-65304899D01*
X121231326Y-65293465D01*
X121276661Y-65289000D01*
X122113339Y-65289000D01*
X122158674Y-65293465D01*
G37*
G36*
X124208674Y-65293465D02*
G01*
X124246367Y-65304899D01*
X124281103Y-65323466D01*
X124311548Y-65348452D01*
X124336534Y-65378897D01*
X124355101Y-65413633D01*
X124366535Y-65451326D01*
X124371000Y-65496661D01*
X124371000Y-66583339D01*
X124366535Y-66628674D01*
X124355101Y-66666367D01*
X124336534Y-66701103D01*
X124311548Y-66731548D01*
X124281103Y-66756534D01*
X124246367Y-66775101D01*
X124208674Y-66786535D01*
X124163339Y-66791000D01*
X123326661Y-66791000D01*
X123281326Y-66786535D01*
X123243633Y-66775101D01*
X123208897Y-66756534D01*
X123178452Y-66731548D01*
X123153466Y-66701103D01*
X123134899Y-66666367D01*
X123123465Y-66628674D01*
X123119000Y-66583339D01*
X123119000Y-65496661D01*
X123123465Y-65451326D01*
X123134899Y-65413633D01*
X123153466Y-65378897D01*
X123178452Y-65348452D01*
X123208897Y-65323466D01*
X123243633Y-65304899D01*
X123281326Y-65293465D01*
X123326661Y-65289000D01*
X124163339Y-65289000D01*
X124208674Y-65293465D01*
G37*
G36*
X103418674Y-63803465D02*
G01*
X103456367Y-63814899D01*
X103491103Y-63833466D01*
X103521548Y-63858452D01*
X103546534Y-63888897D01*
X103565101Y-63923633D01*
X103576535Y-63961326D01*
X103581000Y-64006661D01*
X103581000Y-65093339D01*
X103576535Y-65138674D01*
X103565101Y-65176367D01*
X103546534Y-65211103D01*
X103521548Y-65241548D01*
X103491103Y-65266534D01*
X103456367Y-65285101D01*
X103418674Y-65296535D01*
X103373339Y-65301000D01*
X102536661Y-65301000D01*
X102491326Y-65296535D01*
X102453633Y-65285101D01*
X102418897Y-65266534D01*
X102388452Y-65241548D01*
X102363466Y-65211103D01*
X102344899Y-65176367D01*
X102333465Y-65138674D01*
X102329000Y-65093339D01*
X102329000Y-64006661D01*
X102333465Y-63961326D01*
X102344899Y-63923633D01*
X102363466Y-63888897D01*
X102388452Y-63858452D01*
X102418897Y-63833466D01*
X102453633Y-63814899D01*
X102491326Y-63803465D01*
X102536661Y-63799000D01*
X103373339Y-63799000D01*
X103418674Y-63803465D01*
G37*
G36*
X101368674Y-63803465D02*
G01*
X101406367Y-63814899D01*
X101441103Y-63833466D01*
X101471548Y-63858452D01*
X101496534Y-63888897D01*
X101515101Y-63923633D01*
X101526535Y-63961326D01*
X101531000Y-64006661D01*
X101531000Y-65093339D01*
X101526535Y-65138674D01*
X101515101Y-65176367D01*
X101496534Y-65211103D01*
X101471548Y-65241548D01*
X101441103Y-65266534D01*
X101406367Y-65285101D01*
X101368674Y-65296535D01*
X101323339Y-65301000D01*
X100486661Y-65301000D01*
X100441326Y-65296535D01*
X100403633Y-65285101D01*
X100368897Y-65266534D01*
X100338452Y-65241548D01*
X100313466Y-65211103D01*
X100294899Y-65176367D01*
X100283465Y-65138674D01*
X100279000Y-65093339D01*
X100279000Y-64006661D01*
X100283465Y-63961326D01*
X100294899Y-63923633D01*
X100313466Y-63888897D01*
X100338452Y-63858452D01*
X100368897Y-63833466D01*
X100403633Y-63814899D01*
X100441326Y-63803465D01*
X100486661Y-63799000D01*
X101323339Y-63799000D01*
X101368674Y-63803465D01*
G37*
G36*
X126288674Y-61853465D02*
G01*
X126326367Y-61864899D01*
X126361103Y-61883466D01*
X126391548Y-61908452D01*
X126416534Y-61938897D01*
X126435101Y-61973633D01*
X126446535Y-62011326D01*
X126451000Y-62056661D01*
X126451000Y-63143339D01*
X126446535Y-63188674D01*
X126435101Y-63226367D01*
X126416534Y-63261103D01*
X126391548Y-63291548D01*
X126361103Y-63316534D01*
X126326367Y-63335101D01*
X126288674Y-63346535D01*
X126243339Y-63351000D01*
X125406661Y-63351000D01*
X125361326Y-63346535D01*
X125323633Y-63335101D01*
X125288897Y-63316534D01*
X125258452Y-63291548D01*
X125233466Y-63261103D01*
X125214899Y-63226367D01*
X125203465Y-63188674D01*
X125199000Y-63143339D01*
X125199000Y-62056661D01*
X125203465Y-62011326D01*
X125214899Y-61973633D01*
X125233466Y-61938897D01*
X125258452Y-61908452D01*
X125288897Y-61883466D01*
X125323633Y-61864899D01*
X125361326Y-61853465D01*
X125406661Y-61849000D01*
X126243339Y-61849000D01*
X126288674Y-61853465D01*
G37*
G36*
X124238674Y-61853465D02*
G01*
X124276367Y-61864899D01*
X124311103Y-61883466D01*
X124341548Y-61908452D01*
X124366534Y-61938897D01*
X124385101Y-61973633D01*
X124396535Y-62011326D01*
X124401000Y-62056661D01*
X124401000Y-63143339D01*
X124396535Y-63188674D01*
X124385101Y-63226367D01*
X124366534Y-63261103D01*
X124341548Y-63291548D01*
X124311103Y-63316534D01*
X124276367Y-63335101D01*
X124238674Y-63346535D01*
X124193339Y-63351000D01*
X123356661Y-63351000D01*
X123311326Y-63346535D01*
X123273633Y-63335101D01*
X123238897Y-63316534D01*
X123208452Y-63291548D01*
X123183466Y-63261103D01*
X123164899Y-63226367D01*
X123153465Y-63188674D01*
X123149000Y-63143339D01*
X123149000Y-62056661D01*
X123153465Y-62011326D01*
X123164899Y-61973633D01*
X123183466Y-61938897D01*
X123208452Y-61908452D01*
X123238897Y-61883466D01*
X123273633Y-61864899D01*
X123311326Y-61853465D01*
X123356661Y-61849000D01*
X124193339Y-61849000D01*
X124238674Y-61853465D01*
G37*
G36*
X101368674Y-61263465D02*
G01*
X101406367Y-61274899D01*
X101441103Y-61293466D01*
X101471548Y-61318452D01*
X101496534Y-61348897D01*
X101515101Y-61383633D01*
X101526535Y-61421326D01*
X101531000Y-61466661D01*
X101531000Y-62553339D01*
X101526535Y-62598674D01*
X101515101Y-62636367D01*
X101496534Y-62671103D01*
X101471548Y-62701548D01*
X101441103Y-62726534D01*
X101406367Y-62745101D01*
X101368674Y-62756535D01*
X101323339Y-62761000D01*
X100486661Y-62761000D01*
X100441326Y-62756535D01*
X100403633Y-62745101D01*
X100368897Y-62726534D01*
X100338452Y-62701548D01*
X100313466Y-62671103D01*
X100294899Y-62636367D01*
X100283465Y-62598674D01*
X100279000Y-62553339D01*
X100279000Y-61466661D01*
X100283465Y-61421326D01*
X100294899Y-61383633D01*
X100313466Y-61348897D01*
X100338452Y-61318452D01*
X100368897Y-61293466D01*
X100403633Y-61274899D01*
X100441326Y-61263465D01*
X100486661Y-61259000D01*
X101323339Y-61259000D01*
X101368674Y-61263465D01*
G37*
G36*
X103418674Y-61263465D02*
G01*
X103456367Y-61274899D01*
X103491103Y-61293466D01*
X103521548Y-61318452D01*
X103546534Y-61348897D01*
X103565101Y-61383633D01*
X103576535Y-61421326D01*
X103581000Y-61466661D01*
X103581000Y-62553339D01*
X103576535Y-62598674D01*
X103565101Y-62636367D01*
X103546534Y-62671103D01*
X103521548Y-62701548D01*
X103491103Y-62726534D01*
X103456367Y-62745101D01*
X103418674Y-62756535D01*
X103373339Y-62761000D01*
X102536661Y-62761000D01*
X102491326Y-62756535D01*
X102453633Y-62745101D01*
X102418897Y-62726534D01*
X102388452Y-62701548D01*
X102363466Y-62671103D01*
X102344899Y-62636367D01*
X102333465Y-62598674D01*
X102329000Y-62553339D01*
X102329000Y-61466661D01*
X102333465Y-61421326D01*
X102344899Y-61383633D01*
X102363466Y-61348897D01*
X102388452Y-61318452D01*
X102418897Y-61293466D01*
X102453633Y-61274899D01*
X102491326Y-61263465D01*
X102536661Y-61259000D01*
X103373339Y-61259000D01*
X103418674Y-61263465D01*
G37*
G36*
X108690295Y-59230323D02*
G01*
X108697309Y-59232451D01*
X108711077Y-59239810D01*
X108733716Y-59249187D01*
X108757749Y-59253967D01*
X108782253Y-59253967D01*
X108806286Y-59249186D01*
X108828923Y-59239810D01*
X108842691Y-59232451D01*
X108849705Y-59230323D01*
X108863140Y-59229000D01*
X109176860Y-59229000D01*
X109190295Y-59230323D01*
X109197309Y-59232451D01*
X109211077Y-59239810D01*
X109233716Y-59249187D01*
X109257749Y-59253967D01*
X109282253Y-59253967D01*
X109306286Y-59249186D01*
X109328923Y-59239810D01*
X109342691Y-59232451D01*
X109349705Y-59230323D01*
X109363140Y-59229000D01*
X109676860Y-59229000D01*
X109690295Y-59230323D01*
X109697309Y-59232451D01*
X109711077Y-59239810D01*
X109733716Y-59249187D01*
X109757749Y-59253967D01*
X109782253Y-59253967D01*
X109806286Y-59249186D01*
X109828923Y-59239810D01*
X109842691Y-59232451D01*
X109849705Y-59230323D01*
X109863140Y-59229000D01*
X110176860Y-59229000D01*
X110190295Y-59230323D01*
X110197309Y-59232451D01*
X110211077Y-59239810D01*
X110233716Y-59249187D01*
X110257749Y-59253967D01*
X110282253Y-59253967D01*
X110306286Y-59249186D01*
X110328923Y-59239810D01*
X110342691Y-59232451D01*
X110349705Y-59230323D01*
X110363140Y-59229000D01*
X110676860Y-59229000D01*
X110690295Y-59230323D01*
X110697309Y-59232451D01*
X110711077Y-59239810D01*
X110733716Y-59249187D01*
X110757749Y-59253967D01*
X110782253Y-59253967D01*
X110806286Y-59249186D01*
X110828923Y-59239810D01*
X110842691Y-59232451D01*
X110849705Y-59230323D01*
X110863140Y-59229000D01*
X111176860Y-59229000D01*
X111190295Y-59230323D01*
X111197309Y-59232451D01*
X111211077Y-59239810D01*
X111233716Y-59249187D01*
X111257749Y-59253967D01*
X111282253Y-59253967D01*
X111306286Y-59249186D01*
X111328923Y-59239810D01*
X111342691Y-59232451D01*
X111349705Y-59230323D01*
X111363140Y-59229000D01*
X111676860Y-59229000D01*
X111690295Y-59230323D01*
X111697309Y-59232451D01*
X111711077Y-59239810D01*
X111733716Y-59249187D01*
X111757749Y-59253967D01*
X111782253Y-59253967D01*
X111806286Y-59249186D01*
X111828923Y-59239810D01*
X111842691Y-59232451D01*
X111849705Y-59230323D01*
X111863140Y-59229000D01*
X112176860Y-59229000D01*
X112190295Y-59230323D01*
X112197309Y-59232451D01*
X112211077Y-59239810D01*
X112233716Y-59249187D01*
X112257749Y-59253967D01*
X112282253Y-59253967D01*
X112306286Y-59249186D01*
X112328923Y-59239810D01*
X112342691Y-59232451D01*
X112349705Y-59230323D01*
X112363140Y-59229000D01*
X112676860Y-59229000D01*
X112690295Y-59230323D01*
X112697309Y-59232451D01*
X112711077Y-59239810D01*
X112733716Y-59249187D01*
X112757749Y-59253967D01*
X112782253Y-59253967D01*
X112806286Y-59249186D01*
X112828923Y-59239810D01*
X112842691Y-59232451D01*
X112849705Y-59230323D01*
X112863140Y-59229000D01*
X113176860Y-59229000D01*
X113190295Y-59230323D01*
X113197309Y-59232451D01*
X113211077Y-59239810D01*
X113233716Y-59249187D01*
X113257749Y-59253967D01*
X113282253Y-59253967D01*
X113306286Y-59249186D01*
X113328923Y-59239810D01*
X113342691Y-59232451D01*
X113349705Y-59230323D01*
X113363140Y-59229000D01*
X113676860Y-59229000D01*
X113690295Y-59230323D01*
X113697309Y-59232451D01*
X113711077Y-59239810D01*
X113733716Y-59249187D01*
X113757749Y-59253967D01*
X113782253Y-59253967D01*
X113806286Y-59249186D01*
X113828923Y-59239810D01*
X113842691Y-59232451D01*
X113849705Y-59230323D01*
X113863140Y-59229000D01*
X114176860Y-59229000D01*
X114190295Y-59230323D01*
X114197309Y-59232451D01*
X114211077Y-59239810D01*
X114233716Y-59249187D01*
X114257749Y-59253967D01*
X114282253Y-59253967D01*
X114306286Y-59249186D01*
X114328923Y-59239810D01*
X114342691Y-59232451D01*
X114349705Y-59230323D01*
X114363140Y-59229000D01*
X114676860Y-59229000D01*
X114690295Y-59230323D01*
X114697309Y-59232451D01*
X114711077Y-59239810D01*
X114733716Y-59249187D01*
X114757749Y-59253967D01*
X114782253Y-59253967D01*
X114806286Y-59249186D01*
X114828923Y-59239810D01*
X114842691Y-59232451D01*
X114849705Y-59230323D01*
X114863140Y-59229000D01*
X115176860Y-59229000D01*
X115190295Y-59230323D01*
X115197309Y-59232451D01*
X115211077Y-59239810D01*
X115233716Y-59249187D01*
X115257749Y-59253967D01*
X115282253Y-59253967D01*
X115306286Y-59249186D01*
X115328923Y-59239810D01*
X115342691Y-59232451D01*
X115349705Y-59230323D01*
X115363140Y-59229000D01*
X115676860Y-59229000D01*
X115690295Y-59230323D01*
X115697309Y-59232451D01*
X115711077Y-59239810D01*
X115733716Y-59249187D01*
X115757749Y-59253967D01*
X115782253Y-59253967D01*
X115806286Y-59249186D01*
X115828923Y-59239810D01*
X115842691Y-59232451D01*
X115849705Y-59230323D01*
X115863140Y-59229000D01*
X116176860Y-59229000D01*
X116190295Y-59230323D01*
X116197310Y-59232451D01*
X116203776Y-59235908D01*
X116209442Y-59240558D01*
X116214092Y-59246224D01*
X116217549Y-59252690D01*
X116219677Y-59259705D01*
X116221000Y-59273140D01*
X116221000Y-60836860D01*
X116219677Y-60850295D01*
X116217549Y-60857310D01*
X116214092Y-60863776D01*
X116209442Y-60869442D01*
X116203776Y-60874092D01*
X116197310Y-60877549D01*
X116190295Y-60879677D01*
X116176860Y-60881000D01*
X115863140Y-60881000D01*
X115849705Y-60879677D01*
X115842691Y-60877549D01*
X115828923Y-60870190D01*
X115806284Y-60860813D01*
X115782251Y-60856033D01*
X115757747Y-60856033D01*
X115733714Y-60860814D01*
X115711077Y-60870190D01*
X115697309Y-60877549D01*
X115690295Y-60879677D01*
X115676860Y-60881000D01*
X115363140Y-60881000D01*
X115349705Y-60879677D01*
X115342691Y-60877549D01*
X115328923Y-60870190D01*
X115306284Y-60860813D01*
X115282251Y-60856033D01*
X115257747Y-60856033D01*
X115233714Y-60860814D01*
X115211077Y-60870190D01*
X115197309Y-60877549D01*
X115190295Y-60879677D01*
X115176860Y-60881000D01*
X114863140Y-60881000D01*
X114849705Y-60879677D01*
X114842691Y-60877549D01*
X114828923Y-60870190D01*
X114806284Y-60860813D01*
X114782251Y-60856033D01*
X114757747Y-60856033D01*
X114733714Y-60860814D01*
X114711077Y-60870190D01*
X114697309Y-60877549D01*
X114690295Y-60879677D01*
X114676860Y-60881000D01*
X114363140Y-60881000D01*
X114349705Y-60879677D01*
X114342691Y-60877549D01*
X114328923Y-60870190D01*
X114306284Y-60860813D01*
X114282251Y-60856033D01*
X114257747Y-60856033D01*
X114233714Y-60860814D01*
X114211077Y-60870190D01*
X114197309Y-60877549D01*
X114190295Y-60879677D01*
X114176860Y-60881000D01*
X113863140Y-60881000D01*
X113849705Y-60879677D01*
X113842691Y-60877549D01*
X113828923Y-60870190D01*
X113806284Y-60860813D01*
X113782251Y-60856033D01*
X113757747Y-60856033D01*
X113733714Y-60860814D01*
X113711077Y-60870190D01*
X113697309Y-60877549D01*
X113690295Y-60879677D01*
X113676860Y-60881000D01*
X113363140Y-60881000D01*
X113349705Y-60879677D01*
X113342691Y-60877549D01*
X113328923Y-60870190D01*
X113306284Y-60860813D01*
X113282251Y-60856033D01*
X113257747Y-60856033D01*
X113233714Y-60860814D01*
X113211077Y-60870190D01*
X113197309Y-60877549D01*
X113190295Y-60879677D01*
X113176860Y-60881000D01*
X112863140Y-60881000D01*
X112849705Y-60879677D01*
X112842691Y-60877549D01*
X112828923Y-60870190D01*
X112806284Y-60860813D01*
X112782251Y-60856033D01*
X112757747Y-60856033D01*
X112733714Y-60860814D01*
X112711077Y-60870190D01*
X112697309Y-60877549D01*
X112690295Y-60879677D01*
X112676860Y-60881000D01*
X112363140Y-60881000D01*
X112349705Y-60879677D01*
X112342691Y-60877549D01*
X112328923Y-60870190D01*
X112306284Y-60860813D01*
X112282251Y-60856033D01*
X112257747Y-60856033D01*
X112233714Y-60860814D01*
X112211077Y-60870190D01*
X112197309Y-60877549D01*
X112190295Y-60879677D01*
X112176860Y-60881000D01*
X111863140Y-60881000D01*
X111849705Y-60879677D01*
X111842691Y-60877549D01*
X111828923Y-60870190D01*
X111806284Y-60860813D01*
X111782251Y-60856033D01*
X111757747Y-60856033D01*
X111733714Y-60860814D01*
X111711077Y-60870190D01*
X111697309Y-60877549D01*
X111690295Y-60879677D01*
X111676860Y-60881000D01*
X111363140Y-60881000D01*
X111349705Y-60879677D01*
X111342691Y-60877549D01*
X111328923Y-60870190D01*
X111306284Y-60860813D01*
X111282251Y-60856033D01*
X111257747Y-60856033D01*
X111233714Y-60860814D01*
X111211077Y-60870190D01*
X111197309Y-60877549D01*
X111190295Y-60879677D01*
X111176860Y-60881000D01*
X110863140Y-60881000D01*
X110849705Y-60879677D01*
X110842691Y-60877549D01*
X110828923Y-60870190D01*
X110806284Y-60860813D01*
X110782251Y-60856033D01*
X110757747Y-60856033D01*
X110733714Y-60860814D01*
X110711077Y-60870190D01*
X110697309Y-60877549D01*
X110690295Y-60879677D01*
X110676860Y-60881000D01*
X110363140Y-60881000D01*
X110349705Y-60879677D01*
X110342691Y-60877549D01*
X110328923Y-60870190D01*
X110306284Y-60860813D01*
X110282251Y-60856033D01*
X110257747Y-60856033D01*
X110233714Y-60860814D01*
X110211077Y-60870190D01*
X110197309Y-60877549D01*
X110190295Y-60879677D01*
X110176860Y-60881000D01*
X109863140Y-60881000D01*
X109849705Y-60879677D01*
X109842691Y-60877549D01*
X109828923Y-60870190D01*
X109806284Y-60860813D01*
X109782251Y-60856033D01*
X109757747Y-60856033D01*
X109733714Y-60860814D01*
X109711077Y-60870190D01*
X109697309Y-60877549D01*
X109690295Y-60879677D01*
X109676860Y-60881000D01*
X109363140Y-60881000D01*
X109349705Y-60879677D01*
X109342691Y-60877549D01*
X109328923Y-60870190D01*
X109306284Y-60860813D01*
X109282251Y-60856033D01*
X109257747Y-60856033D01*
X109233714Y-60860814D01*
X109211077Y-60870190D01*
X109197309Y-60877549D01*
X109190295Y-60879677D01*
X109176860Y-60881000D01*
X108863140Y-60881000D01*
X108849705Y-60879677D01*
X108842691Y-60877549D01*
X108828923Y-60870190D01*
X108806284Y-60860813D01*
X108782251Y-60856033D01*
X108757747Y-60856033D01*
X108733714Y-60860814D01*
X108711077Y-60870190D01*
X108697309Y-60877549D01*
X108690295Y-60879677D01*
X108676860Y-60881000D01*
X108363140Y-60881000D01*
X108349705Y-60879677D01*
X108342690Y-60877549D01*
X108336224Y-60874092D01*
X108330558Y-60869442D01*
X108325908Y-60863776D01*
X108322451Y-60857310D01*
X108320323Y-60850295D01*
X108319000Y-60836860D01*
X108319000Y-59273140D01*
X108320323Y-59259705D01*
X108322451Y-59252690D01*
X108325908Y-59246224D01*
X108330558Y-59240558D01*
X108336224Y-59235908D01*
X108342690Y-59232451D01*
X108349705Y-59230323D01*
X108363140Y-59229000D01*
X108676860Y-59229000D01*
X108690295Y-59230323D01*
G37*
G36*
X126288674Y-59083465D02*
G01*
X126326367Y-59094899D01*
X126361103Y-59113466D01*
X126391548Y-59138452D01*
X126416534Y-59168897D01*
X126435101Y-59203633D01*
X126446535Y-59241326D01*
X126451000Y-59286661D01*
X126451000Y-60373339D01*
X126446535Y-60418674D01*
X126435101Y-60456367D01*
X126416534Y-60491103D01*
X126391548Y-60521548D01*
X126361103Y-60546534D01*
X126326367Y-60565101D01*
X126288674Y-60576535D01*
X126243339Y-60581000D01*
X125406661Y-60581000D01*
X125361326Y-60576535D01*
X125323633Y-60565101D01*
X125288897Y-60546534D01*
X125258452Y-60521548D01*
X125233466Y-60491103D01*
X125214899Y-60456367D01*
X125203465Y-60418674D01*
X125199000Y-60373339D01*
X125199000Y-59286661D01*
X125203465Y-59241326D01*
X125214899Y-59203633D01*
X125233466Y-59168897D01*
X125258452Y-59138452D01*
X125288897Y-59113466D01*
X125323633Y-59094899D01*
X125361326Y-59083465D01*
X125406661Y-59079000D01*
X126243339Y-59079000D01*
X126288674Y-59083465D01*
G37*
G36*
X124238674Y-59083465D02*
G01*
X124276367Y-59094899D01*
X124311103Y-59113466D01*
X124341548Y-59138452D01*
X124366534Y-59168897D01*
X124385101Y-59203633D01*
X124396535Y-59241326D01*
X124401000Y-59286661D01*
X124401000Y-60373339D01*
X124396535Y-60418674D01*
X124385101Y-60456367D01*
X124366534Y-60491103D01*
X124341548Y-60521548D01*
X124311103Y-60546534D01*
X124276367Y-60565101D01*
X124238674Y-60576535D01*
X124193339Y-60581000D01*
X123356661Y-60581000D01*
X123311326Y-60576535D01*
X123273633Y-60565101D01*
X123238897Y-60546534D01*
X123208452Y-60521548D01*
X123183466Y-60491103D01*
X123164899Y-60456367D01*
X123153465Y-60418674D01*
X123149000Y-60373339D01*
X123149000Y-59286661D01*
X123153465Y-59241326D01*
X123164899Y-59203633D01*
X123183466Y-59168897D01*
X123208452Y-59138452D01*
X123238897Y-59113466D01*
X123273633Y-59094899D01*
X123311326Y-59083465D01*
X123356661Y-59079000D01*
X124193339Y-59079000D01*
X124238674Y-59083465D01*
G37*
G36*
X101368674Y-58723465D02*
G01*
X101406367Y-58734899D01*
X101441103Y-58753466D01*
X101471548Y-58778452D01*
X101496534Y-58808897D01*
X101515101Y-58843633D01*
X101526535Y-58881326D01*
X101531000Y-58926661D01*
X101531000Y-60013339D01*
X101526535Y-60058674D01*
X101515101Y-60096367D01*
X101496534Y-60131103D01*
X101471548Y-60161548D01*
X101441103Y-60186534D01*
X101406367Y-60205101D01*
X101368674Y-60216535D01*
X101323339Y-60221000D01*
X100486661Y-60221000D01*
X100441326Y-60216535D01*
X100403633Y-60205101D01*
X100368897Y-60186534D01*
X100338452Y-60161548D01*
X100313466Y-60131103D01*
X100294899Y-60096367D01*
X100283465Y-60058674D01*
X100279000Y-60013339D01*
X100279000Y-58926661D01*
X100283465Y-58881326D01*
X100294899Y-58843633D01*
X100313466Y-58808897D01*
X100338452Y-58778452D01*
X100368897Y-58753466D01*
X100403633Y-58734899D01*
X100441326Y-58723465D01*
X100486661Y-58719000D01*
X101323339Y-58719000D01*
X101368674Y-58723465D01*
G37*
G36*
X103418674Y-58723465D02*
G01*
X103456367Y-58734899D01*
X103491103Y-58753466D01*
X103521548Y-58778452D01*
X103546534Y-58808897D01*
X103565101Y-58843633D01*
X103576535Y-58881326D01*
X103581000Y-58926661D01*
X103581000Y-60013339D01*
X103576535Y-60058674D01*
X103565101Y-60096367D01*
X103546534Y-60131103D01*
X103521548Y-60161548D01*
X103491103Y-60186534D01*
X103456367Y-60205101D01*
X103418674Y-60216535D01*
X103373339Y-60221000D01*
X102536661Y-60221000D01*
X102491326Y-60216535D01*
X102453633Y-60205101D01*
X102418897Y-60186534D01*
X102388452Y-60161548D01*
X102363466Y-60131103D01*
X102344899Y-60096367D01*
X102333465Y-60058674D01*
X102329000Y-60013339D01*
X102329000Y-58926661D01*
X102333465Y-58881326D01*
X102344899Y-58843633D01*
X102363466Y-58808897D01*
X102388452Y-58778452D01*
X102418897Y-58753466D01*
X102453633Y-58734899D01*
X102491326Y-58723465D01*
X102536661Y-58719000D01*
X103373339Y-58719000D01*
X103418674Y-58723465D01*
G37*
G36*
X110788674Y-54653465D02*
G01*
X110826367Y-54664899D01*
X110861103Y-54683466D01*
X110891548Y-54708452D01*
X110916534Y-54738897D01*
X110935101Y-54773633D01*
X110946535Y-54811326D01*
X110951000Y-54856661D01*
X110951000Y-55943339D01*
X110946535Y-55988674D01*
X110935101Y-56026367D01*
X110916534Y-56061103D01*
X110891548Y-56091548D01*
X110861103Y-56116534D01*
X110826367Y-56135101D01*
X110788674Y-56146535D01*
X110743339Y-56151000D01*
X109906661Y-56151000D01*
X109861326Y-56146535D01*
X109823633Y-56135101D01*
X109788897Y-56116534D01*
X109758452Y-56091548D01*
X109733466Y-56061103D01*
X109714899Y-56026367D01*
X109703465Y-55988674D01*
X109699000Y-55943339D01*
X109699000Y-54856661D01*
X109703465Y-54811326D01*
X109714899Y-54773633D01*
X109733466Y-54738897D01*
X109758452Y-54708452D01*
X109788897Y-54683466D01*
X109823633Y-54664899D01*
X109861326Y-54653465D01*
X109906661Y-54649000D01*
X110743339Y-54649000D01*
X110788674Y-54653465D01*
G37*
G36*
X108738674Y-54653465D02*
G01*
X108776367Y-54664899D01*
X108811103Y-54683466D01*
X108841548Y-54708452D01*
X108866534Y-54738897D01*
X108885101Y-54773633D01*
X108896535Y-54811326D01*
X108901000Y-54856661D01*
X108901000Y-55943339D01*
X108896535Y-55988674D01*
X108885101Y-56026367D01*
X108866534Y-56061103D01*
X108841548Y-56091548D01*
X108811103Y-56116534D01*
X108776367Y-56135101D01*
X108738674Y-56146535D01*
X108693339Y-56151000D01*
X107856661Y-56151000D01*
X107811326Y-56146535D01*
X107773633Y-56135101D01*
X107738897Y-56116534D01*
X107708452Y-56091548D01*
X107683466Y-56061103D01*
X107664899Y-56026367D01*
X107653465Y-55988674D01*
X107649000Y-55943339D01*
X107649000Y-54856661D01*
X107653465Y-54811326D01*
X107664899Y-54773633D01*
X107683466Y-54738897D01*
X107708452Y-54708452D01*
X107738897Y-54683466D01*
X107773633Y-54664899D01*
X107811326Y-54653465D01*
X107856661Y-54649000D01*
X108693339Y-54649000D01*
X108738674Y-54653465D01*
G37*
M02*
