G04 #@! TF.GenerationSoftware,KiCad,Pcbnew,5.1.5-1.fc31*
G04 #@! TF.CreationDate,2020-02-03T08:48:29+01:00*
G04 #@! TF.ProjectId,lab1,6c616231-2e6b-4696-9361-645f70636258,rev?*
G04 #@! TF.SameCoordinates,Original*
G04 #@! TF.FileFunction,Copper,L2,Bot*
G04 #@! TF.FilePolarity,Positive*
%FSLAX46Y46*%
G04 Gerber Fmt 4.6, Leading zero omitted, Abs format (unit mm)*
G04 Created by KiCad (PCBNEW 5.1.5-1.fc31) date 2020-02-03 08:48:29*
%MOMM*%
%LPD*%
G04 APERTURE LIST*
%ADD10R,1.700000X1.700000*%
%ADD11O,1.700000X1.700000*%
%ADD12C,0.500000*%
%ADD13C,0.250000*%
%ADD14C,0.200000*%
%ADD15C,0.254000*%
G04 APERTURE END LIST*
D10*
X100400000Y-91500000D03*
D11*
X100400000Y-88960000D03*
X100400000Y-86420000D03*
X100400000Y-83880000D03*
X100400000Y-81340000D03*
X100400000Y-78800000D03*
D12*
X113300000Y-83900000D03*
X118800000Y-88400000D03*
X118800000Y-72900000D03*
X127500000Y-66000000D03*
X108100000Y-57700000D03*
X112400000Y-57700000D03*
X102800000Y-90200000D03*
X115000000Y-73200000D03*
X120700000Y-64500000D03*
X105100000Y-68900000D03*
X108520000Y-72980000D03*
X108520000Y-75680000D03*
X107800000Y-75700000D03*
X104100000Y-69000000D03*
X106800000Y-76800000D03*
X120400000Y-74200000D03*
X120400000Y-71800000D03*
X120400000Y-66800000D03*
X106000000Y-75800000D03*
X106000000Y-74000000D03*
D13*
X118800000Y-88400000D02*
X117800000Y-89400000D01*
X117800000Y-89400000D02*
X114500000Y-89400000D01*
X114500000Y-85100000D02*
X113300000Y-83900000D01*
X114500000Y-89400000D02*
X114500000Y-85100000D01*
X118800000Y-72900000D02*
X127000000Y-72900000D01*
X127000000Y-72900000D02*
X128700000Y-71200000D01*
X128700000Y-68100000D02*
X128700000Y-67200000D01*
X128700000Y-68100000D02*
X128700000Y-67900000D01*
X128700000Y-71200000D02*
X128700000Y-68100000D01*
X128700000Y-67200000D02*
X127500000Y-66000000D01*
X127500000Y-66000000D02*
X127500000Y-66000000D01*
X108100000Y-57700000D02*
X112400000Y-57700000D01*
X112400000Y-57700000D02*
X112400000Y-57700000D01*
D14*
X108520000Y-72980000D02*
X108520000Y-75680000D01*
X108520000Y-75680000D02*
X108520000Y-75680000D01*
X107800000Y-74000000D02*
X107800000Y-74000000D01*
X107800000Y-74100000D02*
X107800000Y-74000000D01*
X107800000Y-75700000D02*
X107800000Y-74100000D01*
X107800000Y-74100000D02*
X107800000Y-73100000D01*
X107800000Y-73100000D02*
X107800000Y-73000000D01*
X107800000Y-73000000D02*
X104100000Y-69300000D01*
X104100000Y-69300000D02*
X104100000Y-69000000D01*
X104100000Y-69000000D02*
X104100000Y-69000000D01*
X106800000Y-76800000D02*
X117800000Y-76800000D01*
X117800000Y-76800000D02*
X120400000Y-74200000D01*
X120400000Y-74200000D02*
X120400000Y-74200000D01*
X120400000Y-71800000D02*
X120400000Y-71446447D01*
X120400000Y-71446447D02*
X120400000Y-67100000D01*
X120400000Y-67100000D02*
X120400000Y-66800000D01*
X120400000Y-66800000D02*
X120400000Y-66800000D01*
X106000000Y-75800000D02*
X106000000Y-75446447D01*
X106000000Y-75446447D02*
X106000000Y-74000000D01*
X106000000Y-74000000D02*
X106000000Y-74000000D01*
D15*
G36*
X137315001Y-93315000D02*
G01*
X98685000Y-93315000D01*
X98685000Y-90650000D01*
X98911928Y-90650000D01*
X98911928Y-92350000D01*
X98924188Y-92474482D01*
X98960498Y-92594180D01*
X99019463Y-92704494D01*
X99098815Y-92801185D01*
X99195506Y-92880537D01*
X99305820Y-92939502D01*
X99425518Y-92975812D01*
X99550000Y-92988072D01*
X101250000Y-92988072D01*
X101374482Y-92975812D01*
X101494180Y-92939502D01*
X101604494Y-92880537D01*
X101701185Y-92801185D01*
X101780537Y-92704494D01*
X101839502Y-92594180D01*
X101875812Y-92474482D01*
X101888072Y-92350000D01*
X101888072Y-90650000D01*
X101875812Y-90525518D01*
X101839502Y-90405820D01*
X101780537Y-90295506D01*
X101701185Y-90198815D01*
X101604494Y-90119463D01*
X101494180Y-90060498D01*
X101421620Y-90038487D01*
X101553475Y-89906632D01*
X101715990Y-89663411D01*
X101827932Y-89393158D01*
X101885000Y-89106260D01*
X101885000Y-88813740D01*
X101827932Y-88526842D01*
X101715990Y-88256589D01*
X101553475Y-88013368D01*
X101346632Y-87806525D01*
X101164466Y-87684805D01*
X101281355Y-87615178D01*
X101497588Y-87420269D01*
X101671641Y-87186920D01*
X101796825Y-86924099D01*
X101841476Y-86776890D01*
X101720155Y-86547000D01*
X100527000Y-86547000D01*
X100527000Y-86567000D01*
X100273000Y-86567000D01*
X100273000Y-86547000D01*
X99079845Y-86547000D01*
X98958524Y-86776890D01*
X99003175Y-86924099D01*
X99128359Y-87186920D01*
X99302412Y-87420269D01*
X99518645Y-87615178D01*
X99635534Y-87684805D01*
X99453368Y-87806525D01*
X99246525Y-88013368D01*
X99084010Y-88256589D01*
X98972068Y-88526842D01*
X98915000Y-88813740D01*
X98915000Y-89106260D01*
X98972068Y-89393158D01*
X99084010Y-89663411D01*
X99246525Y-89906632D01*
X99378380Y-90038487D01*
X99305820Y-90060498D01*
X99195506Y-90119463D01*
X99098815Y-90198815D01*
X99019463Y-90295506D01*
X98960498Y-90405820D01*
X98924188Y-90525518D01*
X98911928Y-90650000D01*
X98685000Y-90650000D01*
X98685000Y-78653740D01*
X98915000Y-78653740D01*
X98915000Y-78946260D01*
X98972068Y-79233158D01*
X99084010Y-79503411D01*
X99246525Y-79746632D01*
X99453368Y-79953475D01*
X99627760Y-80070000D01*
X99453368Y-80186525D01*
X99246525Y-80393368D01*
X99084010Y-80636589D01*
X98972068Y-80906842D01*
X98915000Y-81193740D01*
X98915000Y-81486260D01*
X98972068Y-81773158D01*
X99084010Y-82043411D01*
X99246525Y-82286632D01*
X99453368Y-82493475D01*
X99627760Y-82610000D01*
X99453368Y-82726525D01*
X99246525Y-82933368D01*
X99084010Y-83176589D01*
X98972068Y-83446842D01*
X98915000Y-83733740D01*
X98915000Y-84026260D01*
X98972068Y-84313158D01*
X99084010Y-84583411D01*
X99246525Y-84826632D01*
X99453368Y-85033475D01*
X99635534Y-85155195D01*
X99518645Y-85224822D01*
X99302412Y-85419731D01*
X99128359Y-85653080D01*
X99003175Y-85915901D01*
X98958524Y-86063110D01*
X99079845Y-86293000D01*
X100273000Y-86293000D01*
X100273000Y-86273000D01*
X100527000Y-86273000D01*
X100527000Y-86293000D01*
X101720155Y-86293000D01*
X101841476Y-86063110D01*
X101796825Y-85915901D01*
X101671641Y-85653080D01*
X101497588Y-85419731D01*
X101281355Y-85224822D01*
X101164466Y-85155195D01*
X101346632Y-85033475D01*
X101553475Y-84826632D01*
X101715990Y-84583411D01*
X101827932Y-84313158D01*
X101885000Y-84026260D01*
X101885000Y-83812835D01*
X112415000Y-83812835D01*
X112415000Y-83987165D01*
X112449010Y-84158145D01*
X112515723Y-84319205D01*
X112612576Y-84464155D01*
X112735845Y-84587424D01*
X112880795Y-84684277D01*
X113041855Y-84750990D01*
X113084714Y-84759515D01*
X113740001Y-85414803D01*
X113740000Y-89362667D01*
X113736323Y-89400000D01*
X113750997Y-89548986D01*
X113794454Y-89692247D01*
X113865026Y-89824276D01*
X113932614Y-89906632D01*
X113959999Y-89940001D01*
X114075724Y-90034974D01*
X114207753Y-90105546D01*
X114351014Y-90149003D01*
X114500000Y-90163677D01*
X114537333Y-90160000D01*
X117762678Y-90160000D01*
X117800000Y-90163676D01*
X117837322Y-90160000D01*
X117837333Y-90160000D01*
X117948986Y-90149003D01*
X118092247Y-90105546D01*
X118224276Y-90034974D01*
X118340001Y-89940001D01*
X118363804Y-89910998D01*
X118556590Y-89718212D01*
X130945000Y-89718212D01*
X130945000Y-89941788D01*
X130988617Y-90161067D01*
X131074176Y-90367624D01*
X131198388Y-90553520D01*
X131356480Y-90711612D01*
X131542376Y-90835824D01*
X131748933Y-90921383D01*
X131968212Y-90965000D01*
X132191788Y-90965000D01*
X132411067Y-90921383D01*
X132617624Y-90835824D01*
X132803520Y-90711612D01*
X132961612Y-90553520D01*
X133085824Y-90367624D01*
X133171383Y-90161067D01*
X133215000Y-89941788D01*
X133215000Y-89718212D01*
X133171383Y-89498933D01*
X133085824Y-89292376D01*
X132961612Y-89106480D01*
X132803520Y-88948388D01*
X132617624Y-88824176D01*
X132411067Y-88738617D01*
X132191788Y-88695000D01*
X131968212Y-88695000D01*
X131748933Y-88738617D01*
X131542376Y-88824176D01*
X131356480Y-88948388D01*
X131198388Y-89106480D01*
X131074176Y-89292376D01*
X130988617Y-89498933D01*
X130945000Y-89718212D01*
X118556590Y-89718212D01*
X119015287Y-89259515D01*
X119058145Y-89250990D01*
X119219205Y-89184277D01*
X119364155Y-89087424D01*
X119487424Y-88964155D01*
X119584277Y-88819205D01*
X119650990Y-88658145D01*
X119685000Y-88487165D01*
X119685000Y-88312835D01*
X119650990Y-88141855D01*
X119584277Y-87980795D01*
X119487424Y-87835845D01*
X119364155Y-87712576D01*
X119219205Y-87615723D01*
X119058145Y-87549010D01*
X118887165Y-87515000D01*
X118712835Y-87515000D01*
X118541855Y-87549010D01*
X118380795Y-87615723D01*
X118235845Y-87712576D01*
X118112576Y-87835845D01*
X118015723Y-87980795D01*
X117949010Y-88141855D01*
X117940485Y-88184713D01*
X117485199Y-88640000D01*
X115260000Y-88640000D01*
X115260000Y-85318212D01*
X130945000Y-85318212D01*
X130945000Y-85541788D01*
X130988617Y-85761067D01*
X131074176Y-85967624D01*
X131198388Y-86153520D01*
X131356480Y-86311612D01*
X131542376Y-86435824D01*
X131748933Y-86521383D01*
X131968212Y-86565000D01*
X132191788Y-86565000D01*
X132411067Y-86521383D01*
X132617624Y-86435824D01*
X132803520Y-86311612D01*
X132961612Y-86153520D01*
X133085824Y-85967624D01*
X133171383Y-85761067D01*
X133215000Y-85541788D01*
X133215000Y-85318212D01*
X133171383Y-85098933D01*
X133085824Y-84892376D01*
X132961612Y-84706480D01*
X132803520Y-84548388D01*
X132617624Y-84424176D01*
X132411067Y-84338617D01*
X132191788Y-84295000D01*
X131968212Y-84295000D01*
X131748933Y-84338617D01*
X131542376Y-84424176D01*
X131356480Y-84548388D01*
X131198388Y-84706480D01*
X131074176Y-84892376D01*
X130988617Y-85098933D01*
X130945000Y-85318212D01*
X115260000Y-85318212D01*
X115260000Y-85137322D01*
X115263676Y-85099999D01*
X115260000Y-85062676D01*
X115260000Y-85062667D01*
X115249003Y-84951014D01*
X115205546Y-84807753D01*
X115134974Y-84675724D01*
X115040001Y-84559999D01*
X115011003Y-84536201D01*
X114159515Y-83684714D01*
X114150990Y-83641855D01*
X114084277Y-83480795D01*
X113987424Y-83335845D01*
X113864155Y-83212576D01*
X113719205Y-83115723D01*
X113558145Y-83049010D01*
X113387165Y-83015000D01*
X113212835Y-83015000D01*
X113041855Y-83049010D01*
X112880795Y-83115723D01*
X112735845Y-83212576D01*
X112612576Y-83335845D01*
X112515723Y-83480795D01*
X112449010Y-83641855D01*
X112415000Y-83812835D01*
X101885000Y-83812835D01*
X101885000Y-83733740D01*
X101827932Y-83446842D01*
X101715990Y-83176589D01*
X101553475Y-82933368D01*
X101346632Y-82726525D01*
X101172240Y-82610000D01*
X101346632Y-82493475D01*
X101553475Y-82286632D01*
X101715990Y-82043411D01*
X101827932Y-81773158D01*
X101885000Y-81486260D01*
X101885000Y-81193740D01*
X101827932Y-80906842D01*
X101715990Y-80636589D01*
X101553475Y-80393368D01*
X101346632Y-80186525D01*
X101172240Y-80070000D01*
X101346632Y-79953475D01*
X101553475Y-79746632D01*
X101715990Y-79503411D01*
X101827932Y-79233158D01*
X101885000Y-78946260D01*
X101885000Y-78653740D01*
X101827932Y-78366842D01*
X101715990Y-78096589D01*
X101553475Y-77853368D01*
X101346632Y-77646525D01*
X101103411Y-77484010D01*
X100833158Y-77372068D01*
X100546260Y-77315000D01*
X100253740Y-77315000D01*
X99966842Y-77372068D01*
X99696589Y-77484010D01*
X99453368Y-77646525D01*
X99246525Y-77853368D01*
X99084010Y-78096589D01*
X98972068Y-78366842D01*
X98915000Y-78653740D01*
X98685000Y-78653740D01*
X98685000Y-68912835D01*
X103215000Y-68912835D01*
X103215000Y-69087165D01*
X103249010Y-69258145D01*
X103315723Y-69419205D01*
X103411627Y-69562735D01*
X103417663Y-69582632D01*
X103485913Y-69710319D01*
X103577762Y-69822237D01*
X103605808Y-69845254D01*
X107065001Y-73304448D01*
X107065000Y-73963893D01*
X107061444Y-74000000D01*
X107065000Y-74036105D01*
X107065000Y-74136104D01*
X107065001Y-74136114D01*
X107065000Y-75207047D01*
X107015723Y-75280795D01*
X106949010Y-75441855D01*
X106915000Y-75612835D01*
X106915000Y-75787165D01*
X106942622Y-75926031D01*
X106887165Y-75915000D01*
X106879463Y-75915000D01*
X106885000Y-75887165D01*
X106885000Y-75712835D01*
X106850990Y-75541855D01*
X106784277Y-75380795D01*
X106735000Y-75307047D01*
X106735000Y-74492953D01*
X106784277Y-74419205D01*
X106850990Y-74258145D01*
X106885000Y-74087165D01*
X106885000Y-73912835D01*
X106850990Y-73741855D01*
X106784277Y-73580795D01*
X106687424Y-73435845D01*
X106564155Y-73312576D01*
X106419205Y-73215723D01*
X106258145Y-73149010D01*
X106087165Y-73115000D01*
X105912835Y-73115000D01*
X105741855Y-73149010D01*
X105580795Y-73215723D01*
X105435845Y-73312576D01*
X105312576Y-73435845D01*
X105215723Y-73580795D01*
X105149010Y-73741855D01*
X105115000Y-73912835D01*
X105115000Y-74087165D01*
X105149010Y-74258145D01*
X105215723Y-74419205D01*
X105265001Y-74492954D01*
X105265000Y-75307047D01*
X105215723Y-75380795D01*
X105149010Y-75541855D01*
X105115000Y-75712835D01*
X105115000Y-75887165D01*
X105149010Y-76058145D01*
X105215723Y-76219205D01*
X105312576Y-76364155D01*
X105435845Y-76487424D01*
X105580795Y-76584277D01*
X105741855Y-76650990D01*
X105912835Y-76685000D01*
X105920537Y-76685000D01*
X105915000Y-76712835D01*
X105915000Y-76887165D01*
X105949010Y-77058145D01*
X106015723Y-77219205D01*
X106112576Y-77364155D01*
X106235845Y-77487424D01*
X106380795Y-77584277D01*
X106541855Y-77650990D01*
X106712835Y-77685000D01*
X106887165Y-77685000D01*
X107058145Y-77650990D01*
X107219205Y-77584277D01*
X107292953Y-77535000D01*
X117763895Y-77535000D01*
X117800000Y-77538556D01*
X117836105Y-77535000D01*
X117944085Y-77524365D01*
X118082633Y-77482337D01*
X118210320Y-77414087D01*
X118322238Y-77322238D01*
X118345259Y-77294188D01*
X120571153Y-75068294D01*
X120658145Y-75050990D01*
X120819205Y-74984277D01*
X120964155Y-74887424D01*
X121087424Y-74764155D01*
X121184277Y-74619205D01*
X121250990Y-74458145D01*
X121285000Y-74287165D01*
X121285000Y-74112835D01*
X121250990Y-73941855D01*
X121184277Y-73780795D01*
X121103564Y-73660000D01*
X126962678Y-73660000D01*
X127000000Y-73663676D01*
X127037322Y-73660000D01*
X127037333Y-73660000D01*
X127148986Y-73649003D01*
X127292247Y-73605546D01*
X127424276Y-73534974D01*
X127540001Y-73440001D01*
X127563804Y-73410997D01*
X129211004Y-71763798D01*
X129240001Y-71740001D01*
X129266332Y-71707917D01*
X129334974Y-71624277D01*
X129405546Y-71492247D01*
X129408487Y-71482551D01*
X129449003Y-71348986D01*
X129460000Y-71237333D01*
X129460000Y-71237324D01*
X129463676Y-71200001D01*
X129460000Y-71162678D01*
X129460000Y-67237322D01*
X129463676Y-67199999D01*
X129460000Y-67162676D01*
X129460000Y-67162667D01*
X129449003Y-67051014D01*
X129405546Y-66907753D01*
X129334974Y-66775724D01*
X129240001Y-66659999D01*
X129211003Y-66636201D01*
X128359515Y-65784714D01*
X128350990Y-65741855D01*
X128284277Y-65580795D01*
X128187424Y-65435845D01*
X128064155Y-65312576D01*
X127919205Y-65215723D01*
X127758145Y-65149010D01*
X127587165Y-65115000D01*
X127412835Y-65115000D01*
X127241855Y-65149010D01*
X127080795Y-65215723D01*
X126935845Y-65312576D01*
X126812576Y-65435845D01*
X126715723Y-65580795D01*
X126649010Y-65741855D01*
X126615000Y-65912835D01*
X126615000Y-66087165D01*
X126649010Y-66258145D01*
X126715723Y-66419205D01*
X126812576Y-66564155D01*
X126935845Y-66687424D01*
X127080795Y-66784277D01*
X127241855Y-66850990D01*
X127284714Y-66859515D01*
X127940000Y-67514802D01*
X127940000Y-68137332D01*
X127940001Y-68137342D01*
X127940000Y-70885198D01*
X126685199Y-72140000D01*
X121217085Y-72140000D01*
X121250990Y-72058145D01*
X121285000Y-71887165D01*
X121285000Y-71712835D01*
X121250990Y-71541855D01*
X121184277Y-71380795D01*
X121135000Y-71307047D01*
X121135000Y-67292953D01*
X121184277Y-67219205D01*
X121250990Y-67058145D01*
X121285000Y-66887165D01*
X121285000Y-66712835D01*
X121250990Y-66541855D01*
X121184277Y-66380795D01*
X121087424Y-66235845D01*
X120964155Y-66112576D01*
X120819205Y-66015723D01*
X120658145Y-65949010D01*
X120487165Y-65915000D01*
X120312835Y-65915000D01*
X120141855Y-65949010D01*
X119980795Y-66015723D01*
X119835845Y-66112576D01*
X119712576Y-66235845D01*
X119615723Y-66380795D01*
X119549010Y-66541855D01*
X119515000Y-66712835D01*
X119515000Y-66887165D01*
X119549010Y-67058145D01*
X119615723Y-67219205D01*
X119665001Y-67292954D01*
X119665000Y-71307047D01*
X119615723Y-71380795D01*
X119549010Y-71541855D01*
X119515000Y-71712835D01*
X119515000Y-71887165D01*
X119549010Y-72058145D01*
X119582915Y-72140000D01*
X119255538Y-72140000D01*
X119219205Y-72115723D01*
X119058145Y-72049010D01*
X118887165Y-72015000D01*
X118712835Y-72015000D01*
X118541855Y-72049010D01*
X118380795Y-72115723D01*
X118235845Y-72212576D01*
X118112576Y-72335845D01*
X118015723Y-72480795D01*
X117949010Y-72641855D01*
X117915000Y-72812835D01*
X117915000Y-72987165D01*
X117949010Y-73158145D01*
X118015723Y-73319205D01*
X118112576Y-73464155D01*
X118235845Y-73587424D01*
X118380795Y-73684277D01*
X118541855Y-73750990D01*
X118712835Y-73785000D01*
X118887165Y-73785000D01*
X119058145Y-73750990D01*
X119219205Y-73684277D01*
X119255538Y-73660000D01*
X119696436Y-73660000D01*
X119615723Y-73780795D01*
X119549010Y-73941855D01*
X119531706Y-74028847D01*
X117495554Y-76065000D01*
X109318445Y-76065000D01*
X109370990Y-75938145D01*
X109405000Y-75767165D01*
X109405000Y-75592835D01*
X109370990Y-75421855D01*
X109304277Y-75260795D01*
X109255000Y-75187047D01*
X109255000Y-73472953D01*
X109304277Y-73399205D01*
X109370990Y-73238145D01*
X109405000Y-73067165D01*
X109405000Y-72892835D01*
X109370990Y-72721855D01*
X109304277Y-72560795D01*
X109207424Y-72415845D01*
X109084155Y-72292576D01*
X108939205Y-72195723D01*
X108778145Y-72129010D01*
X108607165Y-72095000D01*
X108432835Y-72095000D01*
X108261855Y-72129010D01*
X108100795Y-72195723D01*
X108061456Y-72222009D01*
X104975313Y-69135867D01*
X104985000Y-69087165D01*
X104985000Y-68912835D01*
X104950990Y-68741855D01*
X104884277Y-68580795D01*
X104787424Y-68435845D01*
X104664155Y-68312576D01*
X104519205Y-68215723D01*
X104358145Y-68149010D01*
X104187165Y-68115000D01*
X104012835Y-68115000D01*
X103841855Y-68149010D01*
X103680795Y-68215723D01*
X103535845Y-68312576D01*
X103412576Y-68435845D01*
X103315723Y-68580795D01*
X103249010Y-68741855D01*
X103215000Y-68912835D01*
X98685000Y-68912835D01*
X98685000Y-57612835D01*
X107215000Y-57612835D01*
X107215000Y-57787165D01*
X107249010Y-57958145D01*
X107315723Y-58119205D01*
X107412576Y-58264155D01*
X107535845Y-58387424D01*
X107680795Y-58484277D01*
X107841855Y-58550990D01*
X108012835Y-58585000D01*
X108187165Y-58585000D01*
X108358145Y-58550990D01*
X108519205Y-58484277D01*
X108555538Y-58460000D01*
X111944462Y-58460000D01*
X111980795Y-58484277D01*
X112141855Y-58550990D01*
X112312835Y-58585000D01*
X112487165Y-58585000D01*
X112658145Y-58550990D01*
X112819205Y-58484277D01*
X112964155Y-58387424D01*
X113087424Y-58264155D01*
X113184277Y-58119205D01*
X113250990Y-57958145D01*
X113285000Y-57787165D01*
X113285000Y-57612835D01*
X113250990Y-57441855D01*
X113184277Y-57280795D01*
X113087424Y-57135845D01*
X112964155Y-57012576D01*
X112819205Y-56915723D01*
X112658145Y-56849010D01*
X112487165Y-56815000D01*
X112312835Y-56815000D01*
X112141855Y-56849010D01*
X111980795Y-56915723D01*
X111944462Y-56940000D01*
X108555538Y-56940000D01*
X108519205Y-56915723D01*
X108358145Y-56849010D01*
X108187165Y-56815000D01*
X108012835Y-56815000D01*
X107841855Y-56849010D01*
X107680795Y-56915723D01*
X107535845Y-57012576D01*
X107412576Y-57135845D01*
X107315723Y-57280795D01*
X107249010Y-57441855D01*
X107215000Y-57612835D01*
X98685000Y-57612835D01*
X98685000Y-54685000D01*
X137315000Y-54685000D01*
X137315001Y-93315000D01*
G37*
X137315001Y-93315000D02*
X98685000Y-93315000D01*
X98685000Y-90650000D01*
X98911928Y-90650000D01*
X98911928Y-92350000D01*
X98924188Y-92474482D01*
X98960498Y-92594180D01*
X99019463Y-92704494D01*
X99098815Y-92801185D01*
X99195506Y-92880537D01*
X99305820Y-92939502D01*
X99425518Y-92975812D01*
X99550000Y-92988072D01*
X101250000Y-92988072D01*
X101374482Y-92975812D01*
X101494180Y-92939502D01*
X101604494Y-92880537D01*
X101701185Y-92801185D01*
X101780537Y-92704494D01*
X101839502Y-92594180D01*
X101875812Y-92474482D01*
X101888072Y-92350000D01*
X101888072Y-90650000D01*
X101875812Y-90525518D01*
X101839502Y-90405820D01*
X101780537Y-90295506D01*
X101701185Y-90198815D01*
X101604494Y-90119463D01*
X101494180Y-90060498D01*
X101421620Y-90038487D01*
X101553475Y-89906632D01*
X101715990Y-89663411D01*
X101827932Y-89393158D01*
X101885000Y-89106260D01*
X101885000Y-88813740D01*
X101827932Y-88526842D01*
X101715990Y-88256589D01*
X101553475Y-88013368D01*
X101346632Y-87806525D01*
X101164466Y-87684805D01*
X101281355Y-87615178D01*
X101497588Y-87420269D01*
X101671641Y-87186920D01*
X101796825Y-86924099D01*
X101841476Y-86776890D01*
X101720155Y-86547000D01*
X100527000Y-86547000D01*
X100527000Y-86567000D01*
X100273000Y-86567000D01*
X100273000Y-86547000D01*
X99079845Y-86547000D01*
X98958524Y-86776890D01*
X99003175Y-86924099D01*
X99128359Y-87186920D01*
X99302412Y-87420269D01*
X99518645Y-87615178D01*
X99635534Y-87684805D01*
X99453368Y-87806525D01*
X99246525Y-88013368D01*
X99084010Y-88256589D01*
X98972068Y-88526842D01*
X98915000Y-88813740D01*
X98915000Y-89106260D01*
X98972068Y-89393158D01*
X99084010Y-89663411D01*
X99246525Y-89906632D01*
X99378380Y-90038487D01*
X99305820Y-90060498D01*
X99195506Y-90119463D01*
X99098815Y-90198815D01*
X99019463Y-90295506D01*
X98960498Y-90405820D01*
X98924188Y-90525518D01*
X98911928Y-90650000D01*
X98685000Y-90650000D01*
X98685000Y-78653740D01*
X98915000Y-78653740D01*
X98915000Y-78946260D01*
X98972068Y-79233158D01*
X99084010Y-79503411D01*
X99246525Y-79746632D01*
X99453368Y-79953475D01*
X99627760Y-80070000D01*
X99453368Y-80186525D01*
X99246525Y-80393368D01*
X99084010Y-80636589D01*
X98972068Y-80906842D01*
X98915000Y-81193740D01*
X98915000Y-81486260D01*
X98972068Y-81773158D01*
X99084010Y-82043411D01*
X99246525Y-82286632D01*
X99453368Y-82493475D01*
X99627760Y-82610000D01*
X99453368Y-82726525D01*
X99246525Y-82933368D01*
X99084010Y-83176589D01*
X98972068Y-83446842D01*
X98915000Y-83733740D01*
X98915000Y-84026260D01*
X98972068Y-84313158D01*
X99084010Y-84583411D01*
X99246525Y-84826632D01*
X99453368Y-85033475D01*
X99635534Y-85155195D01*
X99518645Y-85224822D01*
X99302412Y-85419731D01*
X99128359Y-85653080D01*
X99003175Y-85915901D01*
X98958524Y-86063110D01*
X99079845Y-86293000D01*
X100273000Y-86293000D01*
X100273000Y-86273000D01*
X100527000Y-86273000D01*
X100527000Y-86293000D01*
X101720155Y-86293000D01*
X101841476Y-86063110D01*
X101796825Y-85915901D01*
X101671641Y-85653080D01*
X101497588Y-85419731D01*
X101281355Y-85224822D01*
X101164466Y-85155195D01*
X101346632Y-85033475D01*
X101553475Y-84826632D01*
X101715990Y-84583411D01*
X101827932Y-84313158D01*
X101885000Y-84026260D01*
X101885000Y-83812835D01*
X112415000Y-83812835D01*
X112415000Y-83987165D01*
X112449010Y-84158145D01*
X112515723Y-84319205D01*
X112612576Y-84464155D01*
X112735845Y-84587424D01*
X112880795Y-84684277D01*
X113041855Y-84750990D01*
X113084714Y-84759515D01*
X113740001Y-85414803D01*
X113740000Y-89362667D01*
X113736323Y-89400000D01*
X113750997Y-89548986D01*
X113794454Y-89692247D01*
X113865026Y-89824276D01*
X113932614Y-89906632D01*
X113959999Y-89940001D01*
X114075724Y-90034974D01*
X114207753Y-90105546D01*
X114351014Y-90149003D01*
X114500000Y-90163677D01*
X114537333Y-90160000D01*
X117762678Y-90160000D01*
X117800000Y-90163676D01*
X117837322Y-90160000D01*
X117837333Y-90160000D01*
X117948986Y-90149003D01*
X118092247Y-90105546D01*
X118224276Y-90034974D01*
X118340001Y-89940001D01*
X118363804Y-89910998D01*
X118556590Y-89718212D01*
X130945000Y-89718212D01*
X130945000Y-89941788D01*
X130988617Y-90161067D01*
X131074176Y-90367624D01*
X131198388Y-90553520D01*
X131356480Y-90711612D01*
X131542376Y-90835824D01*
X131748933Y-90921383D01*
X131968212Y-90965000D01*
X132191788Y-90965000D01*
X132411067Y-90921383D01*
X132617624Y-90835824D01*
X132803520Y-90711612D01*
X132961612Y-90553520D01*
X133085824Y-90367624D01*
X133171383Y-90161067D01*
X133215000Y-89941788D01*
X133215000Y-89718212D01*
X133171383Y-89498933D01*
X133085824Y-89292376D01*
X132961612Y-89106480D01*
X132803520Y-88948388D01*
X132617624Y-88824176D01*
X132411067Y-88738617D01*
X132191788Y-88695000D01*
X131968212Y-88695000D01*
X131748933Y-88738617D01*
X131542376Y-88824176D01*
X131356480Y-88948388D01*
X131198388Y-89106480D01*
X131074176Y-89292376D01*
X130988617Y-89498933D01*
X130945000Y-89718212D01*
X118556590Y-89718212D01*
X119015287Y-89259515D01*
X119058145Y-89250990D01*
X119219205Y-89184277D01*
X119364155Y-89087424D01*
X119487424Y-88964155D01*
X119584277Y-88819205D01*
X119650990Y-88658145D01*
X119685000Y-88487165D01*
X119685000Y-88312835D01*
X119650990Y-88141855D01*
X119584277Y-87980795D01*
X119487424Y-87835845D01*
X119364155Y-87712576D01*
X119219205Y-87615723D01*
X119058145Y-87549010D01*
X118887165Y-87515000D01*
X118712835Y-87515000D01*
X118541855Y-87549010D01*
X118380795Y-87615723D01*
X118235845Y-87712576D01*
X118112576Y-87835845D01*
X118015723Y-87980795D01*
X117949010Y-88141855D01*
X117940485Y-88184713D01*
X117485199Y-88640000D01*
X115260000Y-88640000D01*
X115260000Y-85318212D01*
X130945000Y-85318212D01*
X130945000Y-85541788D01*
X130988617Y-85761067D01*
X131074176Y-85967624D01*
X131198388Y-86153520D01*
X131356480Y-86311612D01*
X131542376Y-86435824D01*
X131748933Y-86521383D01*
X131968212Y-86565000D01*
X132191788Y-86565000D01*
X132411067Y-86521383D01*
X132617624Y-86435824D01*
X132803520Y-86311612D01*
X132961612Y-86153520D01*
X133085824Y-85967624D01*
X133171383Y-85761067D01*
X133215000Y-85541788D01*
X133215000Y-85318212D01*
X133171383Y-85098933D01*
X133085824Y-84892376D01*
X132961612Y-84706480D01*
X132803520Y-84548388D01*
X132617624Y-84424176D01*
X132411067Y-84338617D01*
X132191788Y-84295000D01*
X131968212Y-84295000D01*
X131748933Y-84338617D01*
X131542376Y-84424176D01*
X131356480Y-84548388D01*
X131198388Y-84706480D01*
X131074176Y-84892376D01*
X130988617Y-85098933D01*
X130945000Y-85318212D01*
X115260000Y-85318212D01*
X115260000Y-85137322D01*
X115263676Y-85099999D01*
X115260000Y-85062676D01*
X115260000Y-85062667D01*
X115249003Y-84951014D01*
X115205546Y-84807753D01*
X115134974Y-84675724D01*
X115040001Y-84559999D01*
X115011003Y-84536201D01*
X114159515Y-83684714D01*
X114150990Y-83641855D01*
X114084277Y-83480795D01*
X113987424Y-83335845D01*
X113864155Y-83212576D01*
X113719205Y-83115723D01*
X113558145Y-83049010D01*
X113387165Y-83015000D01*
X113212835Y-83015000D01*
X113041855Y-83049010D01*
X112880795Y-83115723D01*
X112735845Y-83212576D01*
X112612576Y-83335845D01*
X112515723Y-83480795D01*
X112449010Y-83641855D01*
X112415000Y-83812835D01*
X101885000Y-83812835D01*
X101885000Y-83733740D01*
X101827932Y-83446842D01*
X101715990Y-83176589D01*
X101553475Y-82933368D01*
X101346632Y-82726525D01*
X101172240Y-82610000D01*
X101346632Y-82493475D01*
X101553475Y-82286632D01*
X101715990Y-82043411D01*
X101827932Y-81773158D01*
X101885000Y-81486260D01*
X101885000Y-81193740D01*
X101827932Y-80906842D01*
X101715990Y-80636589D01*
X101553475Y-80393368D01*
X101346632Y-80186525D01*
X101172240Y-80070000D01*
X101346632Y-79953475D01*
X101553475Y-79746632D01*
X101715990Y-79503411D01*
X101827932Y-79233158D01*
X101885000Y-78946260D01*
X101885000Y-78653740D01*
X101827932Y-78366842D01*
X101715990Y-78096589D01*
X101553475Y-77853368D01*
X101346632Y-77646525D01*
X101103411Y-77484010D01*
X100833158Y-77372068D01*
X100546260Y-77315000D01*
X100253740Y-77315000D01*
X99966842Y-77372068D01*
X99696589Y-77484010D01*
X99453368Y-77646525D01*
X99246525Y-77853368D01*
X99084010Y-78096589D01*
X98972068Y-78366842D01*
X98915000Y-78653740D01*
X98685000Y-78653740D01*
X98685000Y-68912835D01*
X103215000Y-68912835D01*
X103215000Y-69087165D01*
X103249010Y-69258145D01*
X103315723Y-69419205D01*
X103411627Y-69562735D01*
X103417663Y-69582632D01*
X103485913Y-69710319D01*
X103577762Y-69822237D01*
X103605808Y-69845254D01*
X107065001Y-73304448D01*
X107065000Y-73963893D01*
X107061444Y-74000000D01*
X107065000Y-74036105D01*
X107065000Y-74136104D01*
X107065001Y-74136114D01*
X107065000Y-75207047D01*
X107015723Y-75280795D01*
X106949010Y-75441855D01*
X106915000Y-75612835D01*
X106915000Y-75787165D01*
X106942622Y-75926031D01*
X106887165Y-75915000D01*
X106879463Y-75915000D01*
X106885000Y-75887165D01*
X106885000Y-75712835D01*
X106850990Y-75541855D01*
X106784277Y-75380795D01*
X106735000Y-75307047D01*
X106735000Y-74492953D01*
X106784277Y-74419205D01*
X106850990Y-74258145D01*
X106885000Y-74087165D01*
X106885000Y-73912835D01*
X106850990Y-73741855D01*
X106784277Y-73580795D01*
X106687424Y-73435845D01*
X106564155Y-73312576D01*
X106419205Y-73215723D01*
X106258145Y-73149010D01*
X106087165Y-73115000D01*
X105912835Y-73115000D01*
X105741855Y-73149010D01*
X105580795Y-73215723D01*
X105435845Y-73312576D01*
X105312576Y-73435845D01*
X105215723Y-73580795D01*
X105149010Y-73741855D01*
X105115000Y-73912835D01*
X105115000Y-74087165D01*
X105149010Y-74258145D01*
X105215723Y-74419205D01*
X105265001Y-74492954D01*
X105265000Y-75307047D01*
X105215723Y-75380795D01*
X105149010Y-75541855D01*
X105115000Y-75712835D01*
X105115000Y-75887165D01*
X105149010Y-76058145D01*
X105215723Y-76219205D01*
X105312576Y-76364155D01*
X105435845Y-76487424D01*
X105580795Y-76584277D01*
X105741855Y-76650990D01*
X105912835Y-76685000D01*
X105920537Y-76685000D01*
X105915000Y-76712835D01*
X105915000Y-76887165D01*
X105949010Y-77058145D01*
X106015723Y-77219205D01*
X106112576Y-77364155D01*
X106235845Y-77487424D01*
X106380795Y-77584277D01*
X106541855Y-77650990D01*
X106712835Y-77685000D01*
X106887165Y-77685000D01*
X107058145Y-77650990D01*
X107219205Y-77584277D01*
X107292953Y-77535000D01*
X117763895Y-77535000D01*
X117800000Y-77538556D01*
X117836105Y-77535000D01*
X117944085Y-77524365D01*
X118082633Y-77482337D01*
X118210320Y-77414087D01*
X118322238Y-77322238D01*
X118345259Y-77294188D01*
X120571153Y-75068294D01*
X120658145Y-75050990D01*
X120819205Y-74984277D01*
X120964155Y-74887424D01*
X121087424Y-74764155D01*
X121184277Y-74619205D01*
X121250990Y-74458145D01*
X121285000Y-74287165D01*
X121285000Y-74112835D01*
X121250990Y-73941855D01*
X121184277Y-73780795D01*
X121103564Y-73660000D01*
X126962678Y-73660000D01*
X127000000Y-73663676D01*
X127037322Y-73660000D01*
X127037333Y-73660000D01*
X127148986Y-73649003D01*
X127292247Y-73605546D01*
X127424276Y-73534974D01*
X127540001Y-73440001D01*
X127563804Y-73410997D01*
X129211004Y-71763798D01*
X129240001Y-71740001D01*
X129266332Y-71707917D01*
X129334974Y-71624277D01*
X129405546Y-71492247D01*
X129408487Y-71482551D01*
X129449003Y-71348986D01*
X129460000Y-71237333D01*
X129460000Y-71237324D01*
X129463676Y-71200001D01*
X129460000Y-71162678D01*
X129460000Y-67237322D01*
X129463676Y-67199999D01*
X129460000Y-67162676D01*
X129460000Y-67162667D01*
X129449003Y-67051014D01*
X129405546Y-66907753D01*
X129334974Y-66775724D01*
X129240001Y-66659999D01*
X129211003Y-66636201D01*
X128359515Y-65784714D01*
X128350990Y-65741855D01*
X128284277Y-65580795D01*
X128187424Y-65435845D01*
X128064155Y-65312576D01*
X127919205Y-65215723D01*
X127758145Y-65149010D01*
X127587165Y-65115000D01*
X127412835Y-65115000D01*
X127241855Y-65149010D01*
X127080795Y-65215723D01*
X126935845Y-65312576D01*
X126812576Y-65435845D01*
X126715723Y-65580795D01*
X126649010Y-65741855D01*
X126615000Y-65912835D01*
X126615000Y-66087165D01*
X126649010Y-66258145D01*
X126715723Y-66419205D01*
X126812576Y-66564155D01*
X126935845Y-66687424D01*
X127080795Y-66784277D01*
X127241855Y-66850990D01*
X127284714Y-66859515D01*
X127940000Y-67514802D01*
X127940000Y-68137332D01*
X127940001Y-68137342D01*
X127940000Y-70885198D01*
X126685199Y-72140000D01*
X121217085Y-72140000D01*
X121250990Y-72058145D01*
X121285000Y-71887165D01*
X121285000Y-71712835D01*
X121250990Y-71541855D01*
X121184277Y-71380795D01*
X121135000Y-71307047D01*
X121135000Y-67292953D01*
X121184277Y-67219205D01*
X121250990Y-67058145D01*
X121285000Y-66887165D01*
X121285000Y-66712835D01*
X121250990Y-66541855D01*
X121184277Y-66380795D01*
X121087424Y-66235845D01*
X120964155Y-66112576D01*
X120819205Y-66015723D01*
X120658145Y-65949010D01*
X120487165Y-65915000D01*
X120312835Y-65915000D01*
X120141855Y-65949010D01*
X119980795Y-66015723D01*
X119835845Y-66112576D01*
X119712576Y-66235845D01*
X119615723Y-66380795D01*
X119549010Y-66541855D01*
X119515000Y-66712835D01*
X119515000Y-66887165D01*
X119549010Y-67058145D01*
X119615723Y-67219205D01*
X119665001Y-67292954D01*
X119665000Y-71307047D01*
X119615723Y-71380795D01*
X119549010Y-71541855D01*
X119515000Y-71712835D01*
X119515000Y-71887165D01*
X119549010Y-72058145D01*
X119582915Y-72140000D01*
X119255538Y-72140000D01*
X119219205Y-72115723D01*
X119058145Y-72049010D01*
X118887165Y-72015000D01*
X118712835Y-72015000D01*
X118541855Y-72049010D01*
X118380795Y-72115723D01*
X118235845Y-72212576D01*
X118112576Y-72335845D01*
X118015723Y-72480795D01*
X117949010Y-72641855D01*
X117915000Y-72812835D01*
X117915000Y-72987165D01*
X117949010Y-73158145D01*
X118015723Y-73319205D01*
X118112576Y-73464155D01*
X118235845Y-73587424D01*
X118380795Y-73684277D01*
X118541855Y-73750990D01*
X118712835Y-73785000D01*
X118887165Y-73785000D01*
X119058145Y-73750990D01*
X119219205Y-73684277D01*
X119255538Y-73660000D01*
X119696436Y-73660000D01*
X119615723Y-73780795D01*
X119549010Y-73941855D01*
X119531706Y-74028847D01*
X117495554Y-76065000D01*
X109318445Y-76065000D01*
X109370990Y-75938145D01*
X109405000Y-75767165D01*
X109405000Y-75592835D01*
X109370990Y-75421855D01*
X109304277Y-75260795D01*
X109255000Y-75187047D01*
X109255000Y-73472953D01*
X109304277Y-73399205D01*
X109370990Y-73238145D01*
X109405000Y-73067165D01*
X109405000Y-72892835D01*
X109370990Y-72721855D01*
X109304277Y-72560795D01*
X109207424Y-72415845D01*
X109084155Y-72292576D01*
X108939205Y-72195723D01*
X108778145Y-72129010D01*
X108607165Y-72095000D01*
X108432835Y-72095000D01*
X108261855Y-72129010D01*
X108100795Y-72195723D01*
X108061456Y-72222009D01*
X104975313Y-69135867D01*
X104985000Y-69087165D01*
X104985000Y-68912835D01*
X104950990Y-68741855D01*
X104884277Y-68580795D01*
X104787424Y-68435845D01*
X104664155Y-68312576D01*
X104519205Y-68215723D01*
X104358145Y-68149010D01*
X104187165Y-68115000D01*
X104012835Y-68115000D01*
X103841855Y-68149010D01*
X103680795Y-68215723D01*
X103535845Y-68312576D01*
X103412576Y-68435845D01*
X103315723Y-68580795D01*
X103249010Y-68741855D01*
X103215000Y-68912835D01*
X98685000Y-68912835D01*
X98685000Y-57612835D01*
X107215000Y-57612835D01*
X107215000Y-57787165D01*
X107249010Y-57958145D01*
X107315723Y-58119205D01*
X107412576Y-58264155D01*
X107535845Y-58387424D01*
X107680795Y-58484277D01*
X107841855Y-58550990D01*
X108012835Y-58585000D01*
X108187165Y-58585000D01*
X108358145Y-58550990D01*
X108519205Y-58484277D01*
X108555538Y-58460000D01*
X111944462Y-58460000D01*
X111980795Y-58484277D01*
X112141855Y-58550990D01*
X112312835Y-58585000D01*
X112487165Y-58585000D01*
X112658145Y-58550990D01*
X112819205Y-58484277D01*
X112964155Y-58387424D01*
X113087424Y-58264155D01*
X113184277Y-58119205D01*
X113250990Y-57958145D01*
X113285000Y-57787165D01*
X113285000Y-57612835D01*
X113250990Y-57441855D01*
X113184277Y-57280795D01*
X113087424Y-57135845D01*
X112964155Y-57012576D01*
X112819205Y-56915723D01*
X112658145Y-56849010D01*
X112487165Y-56815000D01*
X112312835Y-56815000D01*
X112141855Y-56849010D01*
X111980795Y-56915723D01*
X111944462Y-56940000D01*
X108555538Y-56940000D01*
X108519205Y-56915723D01*
X108358145Y-56849010D01*
X108187165Y-56815000D01*
X108012835Y-56815000D01*
X107841855Y-56849010D01*
X107680795Y-56915723D01*
X107535845Y-57012576D01*
X107412576Y-57135845D01*
X107315723Y-57280795D01*
X107249010Y-57441855D01*
X107215000Y-57612835D01*
X98685000Y-57612835D01*
X98685000Y-54685000D01*
X137315000Y-54685000D01*
X137315001Y-93315000D01*
M02*
