M48
; DRILL file {KiCad 5.1.5-1.fc31} date Mon 03 Feb 2020 11:41:52 AM CET
; FORMAT={-:-/ absolute / metric / decimal}
; #@! TF.CreationDate,2020-02-03T11:41:52+01:00
; #@! TF.GenerationSoftware,Kicad,Pcbnew,5.1.5-1.fc31
; #@! TF.FileFunction,Plated,1,2,PTH
FMAT,2
METRIC
T1C0.400
T2C1.000
%
G90
G05
T1
X102.8Y-90.2
X104.1Y-69.0
X105.1Y-68.9
X106.0Y-74.0
X106.0Y-75.8
X106.8Y-76.8
X107.8Y-75.7
X108.1Y-57.7
X108.52Y-72.98
X108.52Y-75.68
X112.4Y-57.7
X113.3Y-83.9
X115.0Y-73.2
X118.8Y-72.9
X118.8Y-88.4
X120.4Y-66.8
X120.4Y-71.8
X120.4Y-74.2
X120.7Y-64.5
X127.5Y-66.0
T2
X100.4Y-78.8
X100.4Y-81.34
X100.4Y-83.88
X100.4Y-86.42
X100.4Y-88.96
X100.4Y-91.5
T0
M30
